<?xml version="1.0" standalone="no"?>
<!DOCTYPE svg PUBLIC "-//W3C//DTD SVG 1.1//EN" "http://www.w3.org/Graphics/SVG/1.1/DTD/svg11.dtd" >
<!--
2013-9-30: Created.
-->
<svg>
<metadata>
Created by iconfont
</metadata>
<defs>

<font id="iconfont" horiz-adv-x="1024" >
  <font-face
    font-family="iconfont"
    font-weight="500"
    font-stretch="normal"
    units-per-em="1024"
    ascent="896"
    descent="-128"
  />
    <missing-glyph />
    
    <glyph glyph-name="gou" unicode="&#58939;" d="M511.974401 812c-282.75527 0-511.974401-229.219131-511.974401-511.974401 0-282.757318 229.219131-511.974401 511.974401-511.974401 282.757318 0 511.974401 229.217083 511.974401 511.974401C1023.948803 582.780869 794.729672 812 511.974401 812zM805.63063 432.825615 474.510162 101.703099c0 0-0.004096-0.004096-0.010239-0.010239-15.265029-15.269125-38.541433-17.652877-56.31104-7.157402-3.290971 1.945503-6.393536 4.333351-9.219635 7.157402-0.002048 0.004096-0.006144 0.006144-0.006144 0.006144l-190.642884 190.642884c-18.095223 18.095223-18.095223 47.4375 0 65.536819 18.095223 18.095223 47.4375 18.095223 65.532723 0l157.884714-157.884714 298.362298 298.362298c18.097271 18.095223 47.439548 18.095223 65.534771 0C823.725854 480.261067 823.725854 450.920838 805.63063 432.825615z"  horiz-adv-x="1025" />

    
    <glyph glyph-name="zitidaxiao" unicode="&#59121;" d="M619.7347 494.743356l-22.195511 162.118308L87.059821 656.861664 63.900356 494.743356l35.704177 0c21.22951 115.798353 27.985378 120.623241 84.919065 120.623241l117.729332 0L302.252929 48.917498c0-70.444399-4.824889-75.269287-90.709955-75.269287l0-30.879288 261.512039 0 0 30.879288c-86.84902 0-90.708931 4.824889-90.708931 75.269287L382.346081 615.366597l117.728308 0c55.003731 0 62.724577-3.859911 83.954087-120.623241L619.7347 494.743356zM943.272397 462.240081 571.920718 462.240081l-16.847713-117.935016 25.974581 0c15.443737 84.238566 20.357654 87.74953 61.774949 87.74953l85.641519 0 0-412.066987c0-51.245128-3.50994-54.755068-65.986877-54.755068l0-22.462594L852.714915-57.230054 852.714915-34.768483c-63.177901 0-65.986877 3.50994-65.986877 54.755068L786.728038 432.054595l85.643566 0c40.013319 0 45.6282-2.807952 61.073984-87.74953l25.973558 0L943.272397 462.240081z"  horiz-adv-x="1024" />

    
    <glyph glyph-name="jiahao" unicode="&#58899;" d="M970.745 436.633 566.614 436.633 566.614 840.749C566.614 870.158 542.771 894 513.361 894c-29.411 0-53.253-23.841-53.253-53.251l0-404.116L55.975 436.633c-29.411 0-53.253-23.841-53.253-53.25 0-29.41 23.842-53.253 53.253-53.253l404.133 0 0-404.115c0-29.407 23.842-53.249 53.253-53.249 29.41 0 53.253 23.842 53.253 53.249L566.614 330.13l404.131 0c29.413 0 53.255 23.843 53.255 53.253C1024 412.792 1000.158 436.633 970.745 436.633z"  horiz-adv-x="1024" />

    
    <glyph glyph-name="shenpi" unicode="&#58974;" d="M607.314887 260.117439c-10.094054 3.750445-20.123815 7.30801-30.089283 10.58697-6.322178 2.078818-59.021286 30.367887-21.323958 95.882801l-0.321467 0c65.000566 66.950798 114.656456 174.727866 114.656456 280.811877 0 163.112203-108.462864 248.600914-234.499241 248.600914C309.593862 896 201.709638 810.511289 201.709638 647.399086c0-106.512633 49.441578-214.739755 114.806474-281.519103 25.460163-66.843642-20.188109-91.425129-29.63923-95.175574C50.641721 176.878995 0 50.028236 0 50.028236l0-178.028258 400.740386 0 68.322389 249.286709L607.314887 260.117439 607.314887 260.117439zM859.923419 219.055426l-38.554573 38.640297 0.214311 0.235742-51.627552 51.563258L535.113466 76.752834c-3.214667-2.593165-5.957849-5.893556-7.200854-10.158348l-54.563614-194.594508 199.05218 50.148805c3.986187 1.178711 7.072267 3.643289 9.601139 6.622214l235.399348 233.32053-57.242503 57.199641L859.923419 219.055426 859.923419 219.055426zM537.020835-68.164353c0 0 23.445638 93.311067 27.067496 109.941611 49.848769-21.388251 83.474186-83.452755 83.474186-83.452755L537.020835-68.164353zM791.279563 332.940362l147.46749-147.424628 33.732572 31.632323-147.488921 147.446059L791.279563 332.940362zM1011.248509 335.062042l-70.679811 70.636949c-19.502313 19.502313-50.963187 19.695193-70.251189 0.38576l-21.666855-21.881167 141.273898-141.338192 21.709718 21.94546C1030.922271 284.055993 1030.750822 315.538298 1011.248509 335.062042L1011.248509 335.062042zM1011.248509 335.062042"  horiz-adv-x="1026" />

    
    <glyph glyph-name="chahao" unicode="&#58884;" d="M511.998977-65.610044c-248.306272 0-449.607998 201.307865-449.607998 449.614138S263.692704 833.610044 511.998977 833.610044c248.364601 0 449.610044-201.299679 449.610044-449.606974S760.363577-65.610044 511.998977-65.610044L511.998977-65.610044zM718.186989 515.078361c8.457626 8.462742 8.457626 22.202675 0 30.658254l-45.927005 45.871747c-8.459672 8.459672-22.138206 8.459672-30.599925 0L511.603981 461.55126 381.546879 591.608362c-8.459672 8.459672-22.1423 8.459672-30.599925 0l-45.927005-45.871747c-8.457626-8.455579-8.457626-22.195511 0-30.658254l130.057101-130.053008L305.019948 254.968252c-8.457626-8.455579-8.457626-22.140253 0-30.599925L350.946954 178.444391c8.457626-8.404414 22.140253-8.404414 30.599925 0l130.057101 130.057101L641.661082 178.444391c8.461719-8.404414 22.140253-8.404414 30.599925 0l45.927005 45.922912c8.457626 8.459672 8.457626 22.144346 0 30.599925L588.129888 385.02433 718.186989 515.078361 718.186989 515.078361z"  horiz-adv-x="1024" />

    
    <glyph glyph-name="jiaochacross79" unicode="&#58913;" d="M647.744 610.304 512 474.496 376.256 610.304 285.696 519.744 421.504 384l-135.744-135.744 90.496-90.496L512 293.504l135.744-135.744 90.496 90.496L602.496 384l135.744 135.744L647.744 610.304zM874.048 746.048c-199.936 199.936-524.16 199.936-724.096 0-199.936-199.936-199.936-524.16 0-724.096 199.936-199.936 524.16-199.936 724.096 0C1073.984 221.888 1073.984 546.112 874.048 746.048zM783.552 112.448c-149.952-149.952-393.088-149.952-543.04 0s-149.952 393.088 0 543.04c149.952 149.952 393.088 149.952 543.04 0C933.504 505.536 933.504 262.464 783.552 112.448z"  horiz-adv-x="1024" />

    
    <glyph glyph-name="fangdajing" unicode="&#58919;" d="M682.56256 502.96832l-131.42016 0L551.1424 632.6272c0 0-7.35744 35.22048-41.69728 35.22048-39.3472 0-45.91616-35.22048-45.91616-35.22048l0-129.65888L332.1088 502.96832c0 0-33.55648-5.84192-33.55648-42.71104 0-36.29056 33.55648-43.70944 33.55648-43.70944l131.42016 0 0-129.664c0 0 9.96352-35.84 45.91616-35.84 36.10624 0 41.69728 35.84 41.69728 35.84L551.1424 416.54784l131.42016 0c0 0 35.84 10.55744 35.84 43.50464C718.40256 498.00704 682.56256 502.96832 682.56256 502.96832zM745.0624 200.96512c71.54176 63.58016 116.52608 155.6736 116.52608 258.1248 0 191.8208-157.62944 347.31008-352.06144 347.3152-194.44736 0-352.0768-155.48928-352.0768-347.31008 0-191.80032 157.62944-347.33056 352.0768-347.33056 37.94432 0 74.48064 5.94432 108.7232 16.90624l76.02176-122.3424c0 0 35.60448-42.59328 96.03584-11.74016 0 0 63.3856 41.93792 26.69568 101.58592L745.0624 200.96512zM510.46912 159.00672c-168.33024 0-304.78336 134.58944-304.78336 300.69248 0 166.07232 136.45312 300.68736 304.78336 300.68736 168.33536 0 304.7936-134.61504 304.7936-300.68736C815.26272 293.59616 678.80448 159.00672 510.46912 159.00672z"  horiz-adv-x="1024" />

    
    <glyph glyph-name="guanbi5" unicode="&#58916;" d="M847.496 80.904l-273.28 273.264 273.24 273.256a30.08 30.08 0 0 1 0 42.568 30.08 30.08 0 0 1-42.56 0L531.656 396.728l-273.216 273.2a30.088 30.088 0 0 1-42.568 0 30.088 30.088 0 0 1 0-42.568l273.216-273.2-273.248-273.256a30.088 30.088 0 0 1 21.28-51.392c7.704 0 15.408 2.936 21.288 8.824l273.248 273.256 273.264-273.256c5.88-5.88 13.584-8.824 21.288-8.824s15.4 2.936 21.28 8.824a30.096 30.096 0 0 1 0.008 42.568z"  horiz-adv-x="1024" />

    
    <glyph glyph-name="quanping" unicode="&#59642;" d="M240.8 700l178.4-178.4-45.6-45.6-177.6 179.2-68-68V768h180.8l-68-68z m133.6-408.8L196 112.8 128 180.8V0h180.8l-68 68 178.4 178.4-44.8 44.8zM715.2 768l68-68-178.4-178.4 45.6-45.6 178.4 178.4 68-68V768H715.2z m-65.6-476.8l-45.6-45.6 178.4-178.4-68-68H896V180.8l-68-68-178.4 178.4z"  horiz-adv-x="1024" />

    
    <glyph glyph-name="tuichuquanping" unicode="&#59643;" d="M142.4 799.2l-44.8-44.8 173.6-174.4-68-68H384V692.8l-67.2-67.2zM752.8 580l173.6 174.4-44.8 44.8-174.4-173.6-67.2 67.2V512h180.8zM270.4 188.8l-169.6-170.4 44.8-49.6 170.4 174.4 68-68V256H203.2zM820.8 256H640v-180.8l68 68 170.4-174.4 44.8 49.6-169.6 170.4z"  horiz-adv-x="1024" />

    
    <glyph glyph-name="activity" unicode="&#59102;" d="M800 50.912c0-1.76-0.736-2.784-0.096-2.88l-574.656-0.416C224.992 47.808 224 48.96 224 50.912v477.12h576v-477.12zM224 685.12c0 1.728 0.64 2.752 0.096 2.912H352V672a32 32 0 1 1 64 0v16h192V672a32 32 0 1 1 64 0v16h127.008a4.736 4.736 0 0 0 0.992-2.88V592H224V685.12zM799.84 752H672V768a32 32 0 0 1-64 0v-16h-192V768a32 32 0 0 1-64 0v-16H223.712C188.576 752 160 721.984 160 685.12V50.88c0-36.896 28.608-66.88 63.744-66.88h576.512c35.136 0 63.744 29.984 63.744 66.88V685.12c0 36.896-28.768 66.912-64.16 66.912zM384 336h256a32 32 0 0 1 0 64h-256a32 32 0 0 1 0-64M384 176h256a32 32 0 0 1 0 64h-256a32 32 0 0 1 0-64"  horiz-adv-x="1024" />

    
    <glyph glyph-name="time" unicode="&#59189;" d="M512 64c-176.448 0-320 143.552-320 320S335.552 704 512 704s320-143.552 320-320-143.552-320-320-320m0 704C300.256 768 128 595.744 128 384s172.256-384 384-384 384 172.256 384 384S723.744 768 512 768M544 390.144V576a32 32 0 0 1-64 0v-199.104c0-8.48 3.36-16.64 9.376-22.624l107.296-107.296a31.904 31.904 0 0 1 45.248 0 32 32 0 0 1 0 45.248L544 390.144z"  horiz-adv-x="1024" />

    
    <glyph glyph-name="trash" unicode="&#59192;" d="M736 543.968L736.096 96h-0.128L288 96.032 288.032 544 736 543.968zM384 672h256v-64h-256V672z m448-64h-128V693.376C704 713.952 687.232 736 640.16 736h-256.32C336.768 736 320 713.952 320 693.376V608H192a32 32 0 1 1 0-64h32V96.032C224 60.704 252.704 32 288.032 32h447.936A64.064 64.064 0 0 1 800 96.032V544h32a32 32 0 1 1 0 64zM608 205.44a32 32 0 0 1 32 32V448a32 32 0 1 1-64 0v-210.56a32 32 0 0 1 32-32M416 205.44a32 32 0 0 1 32 32V448a32 32 0 1 1-64 0v-210.56a32 32 0 0 1 32-32"  horiz-adv-x="1024" />

    
    <glyph glyph-name="setting-permissions" unicode="&#58906;" d="M776.68864 669.53216c-24.54528 141.58336-158.12096 236.032-298.28608 211.13344-139.9808-24.90368-258.26304-133.93408-233.53856-275.33824 5.33504-30.592 20.096-78.26432 37.5296-112.59392L28.04224 125.79327999999998c-9.42592-13.5168-14.76608-37.888-11.91936-54.25152l11.02848-62.78656c-10.496 60.47232 2.84672-21.87776 11.02336-21.51936l83.77344-1.24416c16.18944 2.8416 36.46464 16.54272 45.35808 30.4128l100.67456 157.4144 0.88576 1.07008 87.86944-6.9376 117.57056 184.27392s26.16832 53.53984 123.07456 105.05728c88.69376 41.06752 163.04128 32.49152 163.04128 32.49152 21.57056 53.99552 27.20256 117.66784 16.26624 179.75808zM96.86528 100.61824000000001l-22.00064-13.8496 5.12512 24.8832 238.70464 341.62688 16.50688-11.56096-238.336-341.09952zM652.71296 597.1456000000001c-38.59456-55.49568-77.90592-16.36864-132.864 22.58944-54.9632 38.95296-104.94464 62.78144-66.34496 118.45632 38.59456 55.49056 114.36544 69.18656 169.32864 30.23872 54.95808-39.13216 68.47488-115.79392 29.88032-171.28448zM942.83264 205.77792a200.61696 200.61696 0 0 1-20.3776 49.40288l38.90688 58.55744-0.2048 0.1024-55.2704 55.26016-0.1024 0.1024-58.55744-38.90176a202.368 202.368 0 0 1-49.18784 20.3776l-13.99808 68.84864h-78.31552l-13.99808-68.74624a202.32192 202.32192 0 0 1-49.19808-20.3776l-58.55744 38.80448-55.46496-55.46496 38.89664-58.55744a197.07392 197.07392 0 0 1-20.47488-49.40288l-68.84864-13.99808v-78.31552l68.84864-13.99808a203.93472 203.93472 0 0 1 20.37248-49.40288l-38.89664-58.55744 55.47008-55.46496 58.65984 38.89664a202.89024 202.89024 0 0 1 49.19808-20.37248l13.99808-68.84864h78.31552l13.99808 68.84864a200.7808 200.7808 0 0 1 49.18784 20.37248l58.55744-38.89664 0.1024 0.1024 55.2704 55.26016 0.1024 0.1024-38.90176 58.55744a200.61696 200.61696 0 0 1 20.3776 49.40288l68.84864 13.99808v78.31552l-68.75648 13.99296z m-197.80096-145.73056c-51.21024 0.05632-92.67712 41.61536-92.6208 92.83072 0.06144 51.21024 41.61536 92.67712 92.8256 92.6208 51.21536-0.05632 92.68224-41.61536 92.62592-92.83072-0.05632-51.21024-41.61536-92.67712-92.83072-92.6208z m0 0"  horiz-adv-x="1024" />

    
    <glyph glyph-name="arrow-double-left" unicode="&#59710;" d="M427.264 362.666667L426.666667 363.306667 746.026667 682.666667 806.4 622.336 546.730667 362.666667l259.626666-259.626667L746.026667 42.666667 426.666667 362.069333l0.597333 0.597334z m-298.666667 0L128 363.306667 447.36 682.666667 507.733333 622.336 248.064 362.666667l259.626667-259.626667L447.36 42.666667 128 362.069333l0.597333 0.597334z"  horiz-adv-x="1024" />

    
    <glyph glyph-name="arrow-double-right" unicode="&#59711;" d="M507.093333 362.666667l0.597334 0.64L188.330667 682.666667 128 622.336 387.669333 362.666667 128 103.04 188.330667 42.666667l319.36 319.36-0.597334 0.597333z m298.666667 0l0.597333 0.64L486.997333 682.666667 426.666667 622.336l259.669333-259.669333L426.666667 103.04 486.997333 42.666667l319.36 319.36-0.597333 0.597333z"  horiz-adv-x="1024" />

    
    <glyph glyph-name="back" unicode="&#59712;" d="M376.064 384l302.293333 302.336L618.026667 746.666667 256 384.64l0.597333-0.64-0.597333-0.597333 362.026667-362.069334 60.330666 60.373334L376.064 384z"  horiz-adv-x="1024" />

    
    <glyph glyph-name="forward" unicode="&#59725;" d="M643.669333 384L341.333333 686.336 401.664 746.666667l362.026667-362.026667-0.597334-0.64 0.597334-0.597333L401.664 21.333333 341.333333 81.706667 643.669333 384z"  horiz-adv-x="1024" />

    
    <glyph glyph-name="arrow-down" unicode="&#58917;" d="M512-96l480 480h-288V896H320v-512H32z"  horiz-adv-x="1024" />

    
    <glyph glyph-name="arrow-up" unicode="&#58918;" d="M512 864L32 384h288v-512h384V384h288z"  horiz-adv-x="1024" />

    
    <glyph glyph-name="arrow-down1" unicode="&#59966;" d="M877.248 274.75199999999995l-320-320a64 64 0 0 0-90.496 0l-320 320a64 64 0 1 0 90.496 90.496L448 154.49599999999998V768a64 64 0 1 0 128 0v-613.504l210.752 210.752c12.48 12.48 28.864 18.752 45.248 18.752s32.768-6.24 45.248-18.752a64 64 0 0 0 0-90.496z"  horiz-adv-x="1024" />

    
    <glyph glyph-name="add" unicode="&#58920;" d="M848 32h-96a16 16 0 0 0 0 32H832v80a16 16 0 0 0 32 0v-96a16 16 0 0 0-16-16z m0 192a16 16 0 0 0-16 16v96a16 16 0 0 0 32 0v-96a16 16 0 0 0-16-16z m0 192a16 16 0 0 0-16 16v96a16 16 0 0 0 32 0v-96a16 16 0 0 0-16-16z m0 192a16 16 0 0 0-16 16V704h-80a16 16 0 0 0 0 32h96a16 16 0 0 0 16-16v-96a16 16 0 0 0-16-16z m-192-576h-96a16 16 0 0 0 0 32h96a16 16 0 0 0 0-32z m0 672h-96a16 16 0 0 0 0 32h96a16 16 0 0 0 0-32z m-17.984-288a32 32 0 1 0 0-64h-96v-96a32 32 0 0 0-64 0v96h-96a32 32 0 0 0 0 64h96v96a32 32 0 1 0 64 0v-96h96zM464 704h-96a16 16 0 0 0 0 32h96a16 16 0 0 0 0-32z m-192-672h-96a16 16 0 0 0-16 16v96a16 16 0 0 0 32 0V64h80a16 16 0 0 0 0-32z m0 672H192v-80a16 16 0 0 0-32 0v96a16 16 0 0 0 16 16h96a16 16 0 0 0 0-32z m-96-160a16 16 0 0 0 16-16v-96a16 16 0 0 0-32 0v96a16 16 0 0 0 16 16z m0-192a16 16 0 0 0 16-16v-96a16 16 0 0 0-32 0v96a16 16 0 0 0 16 16z m192-288h96a16 16 0 0 0 0-32h-96a16 16 0 0 0 0 32z"  horiz-adv-x="1024" />

    
    <glyph glyph-name="arrow-up1" unicode="&#59962;" d="M877.248 493.248l-320 320a64 64 0 0 1-90.496 0l-320-320a64 64 0 1 1 90.496-90.496L448 613.504V0a64 64 0 1 1 128 0V613.504l210.752-210.752c12.48-12.48 28.864-18.752 45.248-18.752s32.768 6.24 45.248 18.752a64 64 0 0 1 0 90.496z"  horiz-adv-x="1024" />

    
    <glyph glyph-name="account_box" unicode="&#59705;" d="M256 148.67200000000003v-42.016h512v42.016c0 86.016-170.016 132-256 132s-256-46.016-256-132z m384 341.984c0 70.016-58.016 128-128 128s-128-58.016-128-128 58.016-128 128-128 128 58.016 128 128zM128 660.672c0 46.016 38.016 86.016 86.016 86.016h596c46.016 0 86.016-40 86.016-86.016v-596c0-46.016-40-86.016-86.016-86.016H214.016c-48 0-86.016 40-86.016 86.016V660.672z"  horiz-adv-x="1024" />

    
    <glyph glyph-name="bin" unicode="&#59820;" d="M128 576v-640c0-35.2 28.8-64 64-64h576c35.2 0 64 28.8 64 64V576H128z m192-576H256V448h64v-448z m128 0h-64V448h64v-448z m128 0h-64V448h64v-448z m128 0h-64V448h64v-448z m144 768H640V848c0 26.4-21.6 48-48 48h-224c-26.4 0-48-21.6-48-48V768H112C85.6 768 64 746.4 64 720V640h832V720c0 26.4-21.6 48-48 48zM576 768h-192V831.2h192V768z"  horiz-adv-x="1024" />

    
    <glyph glyph-name="blocked" unicode="&#59918;" d="M874.048 746.048C777.344 842.752 648.768 896 512 896S246.656 842.752 149.952 746.048C53.248 649.344 0 520.768 0 384s53.248-265.344 149.952-362.048C246.656-74.75199999999995 375.232-128 512-128s265.344 53.248 362.048 149.952C970.752 118.65599999999995 1024 247.23199999999997 1024 384s-53.248 265.344-149.952 362.048zM896 384c0-82.816-26.368-159.584-71.104-222.368L289.632 696.896A381.76 381.76 0 0 0 512 768c211.744 0 384-172.256 384-384zM128 384c0 82.816 26.368 159.584 71.104 222.368l535.264-535.264A381.76 381.76 0 0 0 512 0C300.256 0 128 172.25599999999997 128 384z"  horiz-adv-x="1024" />

    
    <glyph glyph-name="bullhorn" unicode="&#59671;" d="M950.848 521.152C991.424 521.152 1024 488.576 1024 448s-32.576-73.152-73.152-73.152v-219.424a73.664 73.664 0 0 0-73.152-73.152c-101.728 84.576-265.728 200.576-464 217.152-68-22.848-91.424-102.272-46.848-148-40-65.728 11.424-112 72-159.424-35.424-69.728-182.848-70.848-235.424-22.272-33.152 101.728-82.272 203.424-42.272 332H91.424A91.712 91.712 0 0 0 0 393.152v109.728a91.712 91.712 0 0 0 91.424 91.424h274.272c219.424 0 402.272 128 512 219.424a73.664 73.664 0 0 0 73.152-73.152v-219.424zM877.728 176V721.152c-149.152-114.272-293.728-180-438.848-196v-154.272c145.152-16 289.728-80.576 438.848-194.848z"  horiz-adv-x="1024" />

    
    <glyph glyph-name="calendar" unicode="&#59669;" d="M108.755993-55.49600399999997h163.118132v163.118131H108.755993V-55.49600399999997z m199.338413 0h181.228273v163.118131H308.094406V-55.49600399999997z m-199.338413 199.370129h163.118132V325.102397H108.755993v-181.228272z m199.338413 0h181.228273V325.102397H308.094406v-181.228272z m-199.338413 217.48027h163.118132v163.118132H108.755993v-163.118132zM525.606393-55.49600399999997h181.228272v163.118131h-181.228272V-55.49600399999997zM308.094406 361.35439499999995h181.228273v163.118132H308.094406v-163.118132zM743.086663-55.49600399999997h163.118132v163.118131h-163.118132V-55.49600399999997z m-217.48027 199.370129h181.228272V325.102397h-181.228272v-181.228272zM326.236263 633.1968039999999V796.314935a18.617605 18.617605 0 0 1-18.11014 18.110141H271.874125a18.617605 18.617605 0 0 1-18.110141-18.110141v-163.118131c0-9.641826 8.500031-18.110141 18.110141-18.110141h36.251998a18.617605 18.617605 0 0 1 18.11014 18.110141z m416.8504-489.322679h163.118132V325.102397h-163.118132v-181.228272z m-217.48027 217.48027h181.228272v163.118132h-181.228272v-163.118132z m217.48027 0h163.118132v163.118132h-163.118132v-163.118132z m18.110141 271.842409V796.314935a18.617605 18.617605 0 0 1-18.110141 18.110141h-36.251998a18.617605 18.617605 0 0 1-18.11014-18.110141v-163.118131c0-9.641826 8.500031-18.110141 18.11014-18.110141h36.251998a18.617605 18.617605 0 0 1 18.110141 18.110141z m217.48027 36.251997V-55.49600399999997a73.01146 73.01146 0 0 0-72.503996-72.503996H108.724277A73.01146 73.01146 0 0 0 36.220281-55.49600399999997V669.448801a73.01146 73.01146 0 0 0 72.503996 72.503996h72.503995V796.314935A90.899585 90.899585 0 0 0 271.842408 886.929071h36.251998a90.899585 90.899585 0 0 0 90.614136-90.614136v-54.362138h217.48027V796.314935A90.899585 90.899585 0 0 0 706.802949 886.929071h36.251997a90.899585 90.899585 0 0 0 90.614137-90.614136v-54.362138h72.503995a73.01146 73.01146 0 0 0 72.503996-72.503996z"  horiz-adv-x="1024" />

    
    <glyph glyph-name="cancel" unicode="&#60407;" d="M626.784 383.96799999999996l195.072-195.072a32.48 32.48 0 0 0 0-45.92l-68.832-68.832a32.48 32.48 0 0 0-45.92 0L512 269.216l-195.104-195.072a32.448 32.448 0 0 0-45.888 0l-68.864 68.832a32.48 32.48 0 0 0 0 45.92l195.104 195.072-195.104 195.104a32.48 32.48 0 0 0 0 45.92L271.04 693.8240000000001a32.448 32.448 0 0 0 45.888 0L512 498.72l195.104 195.104a32.48 32.48 0 0 0 45.92 0l68.832-68.864a32.48 32.48 0 0 0 0-45.92l-195.072-195.072z"  horiz-adv-x="1024" />

    
    <glyph glyph-name="cancel-circle" unicode="&#59917;" d="M512 896C229.216 896 0 666.784 0 384s229.216-512 512-512 512 229.216 512 512S794.784 896 512 896z m0-928C282.24-32 96 154.24 96 384S282.24 800 512 800s416-186.24 416-416-186.24-416-416-416z m160 672l-160-160-160 160-96-96 160-160-160-160 96-96 160 160 160-160 96 96-160 160 160 160z"  horiz-adv-x="1024" />

    
    <glyph glyph-name="calendar-o" unicode="&#59668;" d="M108.755993-55.49600399999997h797.448802V524.472527H108.755993V-55.49600399999997zM326.236263 633.1968039999999V796.314935a17.888125 17.888125 0 0 1-18.11014 18.110141H271.874125a17.888125 17.888125 0 0 1-18.110141-18.110141v-163.118131c0-10.181007 7.929133-18.110141 18.110141-18.110141h36.251998c10.181007 0 18.110141 7.929133 18.11014 18.110141z m434.960541 0V796.314935a17.888125 17.888125 0 0 1-18.110141 18.110141h-36.251998a17.888125 17.888125 0 0 1-18.11014-18.110141v-163.118131c0-10.181007 7.929133-18.110141 18.11014-18.110141h36.251998c10.181007 0 18.110141 7.929133 18.110141 18.110141z m217.48027 36.251997V-55.49600399999997a73.01146 73.01146 0 0 0-72.503996-72.503996H108.724277A73.01146 73.01146 0 0 0 36.220281-55.49600399999997V669.448801a73.01146 73.01146 0 0 0 72.503996 72.503996h72.503995V796.314935A90.899585 90.899585 0 0 0 271.842408 886.929071h36.251998a90.899585 90.899585 0 0 0 90.614136-90.614136v-54.362138h217.48027V796.314935A90.899585 90.899585 0 0 0 706.802949 886.929071h36.251997a90.899585 90.899585 0 0 0 90.614137-90.614136v-54.362138h72.503995a73.01146 73.01146 0 0 0 72.503996-72.503996z"  horiz-adv-x="1024" />

    
    <glyph glyph-name="checkbox-checked" unicode="&#60158;" d="M896 896H128C57.6 896 0 838.4 0 768v-768c0-70.4 57.6-128 128-128h768c70.4 0 128 57.6 128 128V768c0 70.4-57.6 128-128 128zM448 101.50400000000002l-237.248 237.248 90.496 90.496L448 282.496l306.752 306.752 90.496-90.496L448 101.50400000000002z"  horiz-adv-x="1024" />

    
    <glyph glyph-name="checkbox-unchecked" unicode="&#60159;" d="M896 896H128C57.6 896 0 838.4 0 768v-768c0-70.4 57.6-128 128-128h768c70.4 0 128 57.6 128 128V768c0 70.4-57.6 128-128 128z m0-896H128V768h768v-768z"  horiz-adv-x="1024" />

    
    <glyph glyph-name="circle-down" unicode="&#60143;" d="M1024 384c0 282.784-229.216 512-512 512S0 666.784 0 384s229.216-512 512-512 512 229.216 512 512zM96 384C96 613.76 282.24 800 512 800s416-186.24 416-416-186.24-416-416-416S96 154.24 96 384z m221.248 157.248l-90.528-90.528 285.248-285.248 285.248 285.248-90.496 90.496-194.752-194.752z"  horiz-adv-x="1024" />

    
    <glyph glyph-name="checkmark" unicode="&#60406;" d="M927.936 623.008l-68.288 68.288a32.192 32.192 0 0 1-45.536 0L404.672 281.856l-194.752 196.16a32.192 32.192 0 0 1-45.536 0l-68.288-68.288a32.192 32.192 0 0 1 0-45.536l285.568-287.488c12.576-12.576 32.96-12.576 45.536 0L927.936 577.472a32.192 32.192 0 0 1 0 45.536z"  horiz-adv-x="1024" />

    
    <glyph glyph-name="circle-left" unicode="&#60144;" d="M512-128c282.784 0 512 229.216 512 512S794.784 896 512 896 0 666.784 0 384s229.216-512 512-512z m0 928c229.76 0 416-186.24 416-416s-186.24-416-416-416S96 154.24 96 384 282.24 800 512 800z m157.248-221.248l-90.528 90.528-285.248-285.248 285.248-285.248 90.496 90.496-194.752 194.752z"  horiz-adv-x="1024" />

    
    <glyph glyph-name="circle-right" unicode="&#60142;" d="M512 896C229.216 896 0 666.784 0 384s229.216-512 512-512 512 229.216 512 512S794.784 896 512 896z m0-928C282.24-32 96 154.24 96 384S282.24 800 512 800s416-186.24 416-416-186.24-416-416-416z m-157.248 221.248l90.528-90.528 285.248 285.248-285.248 285.248-90.496-90.496 194.752-194.752z"  horiz-adv-x="1024" />

    
    <glyph glyph-name="circle-up" unicode="&#60141;" d="M0 384c0-282.784 229.216-512 512-512s512 229.216 512 512S794.784 896 512 896 0 666.784 0 384z m928 0c0-229.76-186.24-416-416-416S96 154.24 96 384 282.24 800 512 800s416-186.24 416-416z m-221.248-157.248l90.528 90.528-285.248 285.248-285.248-285.248 90.496-90.496 194.752 194.752z"  horiz-adv-x="1024" />

    
    <glyph glyph-name="checked" unicode="&#58938;" d="M848 32h-96a16 16 0 0 0 0 32H832v80a16 16 0 0 0 32 0v-96a16 16 0 0 0-16-16z m0 192a16 16 0 0 0-16 16v96a16 16 0 0 0 32 0v-96a16 16 0 0 0-16-16z m0 192a16 16 0 0 0-16 16v96a16 16 0 0 0 32 0v-96a16 16 0 0 0-16-16z m0 192a16 16 0 0 0-16 16V704h-80a16 16 0 0 0 0 32h96a16 16 0 0 0 16-16v-96a16 16 0 0 0-16-16zM469.312 222.304a15.072 15.072 0 0 0-21.376 0l-32.064 32.064c-0.064 0.096-0.032 0.224-0.096 0.288L313.76 357.44a15.072 15.072 0 0 0 0 21.376l32.064 32.096a15.136 15.136 0 0 0 21.408 0l91.52-92.192 192.448 192.416a15.072 15.072 0 0 0 21.376 0l32.064-32.096a15.04 15.04 0 0 0 0-21.408l-235.328-235.328zM656 704h-96a16 16 0 0 0 0 32h96a16 16 0 0 0 0-32z m-192 0h-96a16 16 0 0 0 0 32h96a16 16 0 0 0 0-32z m-192-672h-96a16 16 0 0 0-16 16v96a16 16 0 0 0 32 0V64h80a16 16 0 0 0 0-32z m0 672H192v-80a16 16 0 0 0-32 0v96a16 16 0 0 0 16 16h96a16 16 0 0 0 0-32z m-96-160a16 16 0 0 0 16-16v-96a16 16 0 0 0-32 0v96a16 16 0 0 0 16 16z m0-192a16 16 0 0 0 16-16v-96a16 16 0 0 0-32 0v96a16 16 0 0 0 16 16z m192-288h96a16 16 0 0 0 0-32h-96a16 16 0 0 0 0 32z m192 0h96a16 16 0 0 0 0-32h-96a16 16 0 0 0 0 32z"  horiz-adv-x="1024" />

    
    <glyph glyph-name="clipboard" unicode="&#59832;" d="M928 768h-288a128 128 0 0 1-256 0H96a32 32 0 0 1-32-32v-832a32 32 0 0 1 32-32h832a32 32 0 0 1 32 32V736a32 32 0 0 1-32 32zM512 832a64 64 0 1 0 0.032-127.968A64 64 0 0 0 512 832z m384-896H128V704h128v-96a32 32 0 0 1 32-32h448a32 32 0 0 1 32 32V704h128v-768z m-448 101.504l-205.248 237.248 58.496 58.496L448 218.49599999999998l274.752 242.752 58.528-58.496z"  horiz-adv-x="1024" />

    
    <glyph glyph-name="close" unicode="&#59651;" d="M802.272 661.216l-23.744 23.712-281.984-281.888-263.104 263.136-23.712-23.712 263.104-263.168-263.104-263.136 23.712-23.744 263.104 263.168 272.608-272.544 23.68 23.68-272.576 272.544z"  horiz-adv-x="1024" />

    
    <glyph glyph-name="clipboard1" unicode="&#59834;" d="M928 768h-288a128 128 0 0 1-256 0H96a32 32 0 0 1-32-32v-832a32 32 0 0 1 32-32h832a32 32 0 0 1 32 32V736a32 32 0 0 1-32 32zM512 832a64 64 0 1 0 0.032-127.968A64 64 0 0 0 512 832z m384-896H128V704h128v-96a32 32 0 0 1 32-32h448a32 32 0 0 1 32 32V704h128v-768z m-448 101.504l-205.248 237.248 58.496 58.496L448 218.49599999999998l274.752 242.752 58.528-58.496z"  horiz-adv-x="1024" />

    
    <glyph glyph-name="cloud" unicode="&#59656;" d="M1024 224a224 224 0 0 0-224-224H224v0.8c-125.056 8.256-224 112.064-224 239.2a239.36 239.36 0 0 0 97.536 192.8C97.056 437.888 96 442.816 96 448a160 160 0 0 0 160 160 158.72 158.72 0 0 0 83.616-24.16C381.312 691.52 485.632 768 608 768a288 288 0 0 0 288-288c0-17.632-1.824-34.752-4.864-51.488A223.936 223.936 0 0 0 1024 224z"  horiz-adv-x="1024" />

    
    <glyph glyph-name="clipboard2" unicode="&#59700;" d="M767.67242-128H192.409475c-35.314753 0-63.918105 28.539434-63.918105 63.790269V705.907556c0 35.218876 28.603352 63.75831 63.918105 63.75831h159.795263v-66.44287H224.368528c-17.641397 0-31.959052-14.253737-31.959053-31.895135v-703.642458c0-17.673356 14.317656-31.895134 31.959053-31.895134h511.344839c17.673356 0 31.959052 14.221778 31.959053 31.895134V671.327861a31.895134 31.895134 0 0 1-31.959053 31.895135h-127.83621V769.665866h159.795263c35.282794 0 63.918105-28.571393 63.918105-63.75831v-770.117287a63.854187 63.854187 0 0 0-63.918105-63.790269zM352.204738 511.884148h351.549577v-31.895134H352.204738v31.895134z m0-95.685403h351.549577v-31.895134H352.204738v31.895134z m0-95.717362h351.549577v-31.895134H352.204738v31.895134z m0-95.685403h351.549577V192.900846H352.204738v31.895134z m351.549577-223.202022H352.204738v31.831216h351.549577v-31.831216z m-351.549577 127.516619h351.549577v-31.895134H352.204738v31.895134zM256.32758 512.523329h31.959053v-31.895134H256.32758v31.895134z m0-95.685403h31.959053v-31.895134H256.32758v31.895134z m0-95.653444h31.959053v-31.895134H256.32758v31.895134z m0-95.685403h31.959053v-31.895134H256.32758v31.895134z m31.959053-223.297899H256.32758v31.895134h31.959053v-31.895134z m-31.959053 127.580537h31.959053v-31.895134H256.32758v31.895134zM671.795262 669.378359c17.673356 0 31.959052-14.285696 31.959053-31.927093v-61.776849H256.32758V637.451266a31.959052 31.959052 0 0 0 31.959053 31.927093h95.877157s0.383509 45.349895 0.383509 97.187479c0 53.819044 41.546768 98.81739 95.493649 98.81739s96.931806-47.299398 96.931806-99.136981c0-55.832465-1.054649-96.867888-1.054649-96.867888h95.877157z m-191.754314 100.287507a31.895134 31.895134 0 1 1 0-63.75831 31.895134 31.895134 0 1 1 0 63.75831z"  horiz-adv-x="1024" />

    
    <glyph glyph-name="clipboard3" unicode="&#58944;" d="M832-128H192c-35.36 0-64 28.608-64 63.872V736.32c0 35.296 28.64 63.872 64 63.872h192V736.32H224c-17.664 0-32-14.272-32-31.936v-736.576a32 32 0 0 1 32-31.936h576c17.696 0 32 14.304 32 31.936V704.384a31.936 31.936 0 0 1-32 31.936h-160V800.192h192c35.328 0 64-28.608 64-63.872v-800.448A63.968 63.968 0 0 0 832-128zM800 704.384v-736.576H224V704.384h32v-129.76h512V704.384h32z m-448-225.568h-32v-31.936h32v31.936z m0-63.872h-32v-31.936h32v31.936z m0-63.872h-32v-31.936h32v31.936z m0-63.872h-32v-31.936h32v31.936z m0-63.872h-32v-31.936h32v31.936z m0-63.904h-32v-31.936h32v31.936z m0-63.872h-32v-31.936h32v31.936z m352 383.264H384v-31.936h320v31.936z m0-63.872H384v-31.936h320v31.936z m0-63.872H384v-31.936h320v31.936z m0-63.872H384v-31.936h320v31.936z m0-63.872H384v-31.936h320v31.936z m0-63.904H384v-31.936h320v31.936z m0-63.872H384v-31.936h320v31.936z m0 608.832c17.696 0 32-14.272 32-31.936v-63.872H288V672.448a31.968 31.968 0 0 0 32 31.936h96s0.384 40.768 0.384 92.672C416.384 850.944 457.984 896 512 896s97.056-47.36 97.056-99.296c0-55.872-1.056-92.32-1.056-92.32h96z m-192 95.808a31.936 31.936 0 1 1 0-63.872 31.968 31.968 0 1 1 0 63.872z"  horiz-adv-x="1024" />

    
    <glyph glyph-name="cloud1" unicode="&#60412;" d="M891.936 0s176.64-0.192 201.44 172.64c11.808 188.992-170.752 226.24-170.752 226.24s20.768 279.776-235.552 311.68c-219.68 22.432-286.528-181.728-286.528-181.728s-66.176 63.616-155.936 11.648c-80.352-49.6-66.144-140.416-66.144-140.416S0 365.376 0 183.48800000000006C4 1.8239999999999554 193.824 0 193.824 0"  horiz-adv-x="1120" />

    
    <glyph glyph-name="cloud-check" unicode="&#60016;" d="M892.256 381.504a160 160 0 0 1-197.376 189.152 192.096 192.096 0 0 1-367.2-4.832A256 256 0 1 1 256 64h608a160 160 0 0 1 28.256 317.504zM416 128l-160 160 64 64 96-96 224 224 64-64-288-288z"  horiz-adv-x="1024" />

    
    <glyph glyph-name="cog" unicode="&#58947;" d="M831.84 285.824h-42.368a301.536 301.536 0 0 0-29.376-70.496l39.168-39.136a64.192 64.192 0 0 0 0-90.752l-22.688-22.688a64.192 64.192 0 0 0-90.752 0L646.4 102.144a301.984 301.984 0 0 0-70.208-28.896v-41.088A64.16 64.16 0 0 0 512.032-32h-32.064a64.192 64.192 0 0 0-64.192 64.16v41.088a303.936 303.936 0 0 0-70.208 28.896l-39.392-39.392a64.128 64.128 0 0 0-90.72 0l-22.72 22.688a64.192 64.192 0 0 0 0 90.752l39.168 39.136a303.552 303.552 0 0 0-29.408 70.496H160.16A64.128 64.128 0 0 0 96 349.952v32.096c0 35.424 28.704 64.16 64.16 64.16h41.856A301.216 301.216 0 0 0 230.4 516.16l-37.664 37.632a64.192 64.192 0 0 0 0 90.752l22.688 22.656a64.128 64.128 0 0 0 90.72 0l36.896-36.896a302.24 302.24 0 0 0 72.704 30.4V703.84A64.224 64.224 0 0 0 479.968 768h32.064c35.424 0 64.16-28.704 64.16-64.16v-43.104c25.792-7.04 50.144-17.28 72.704-30.432l36.896 36.896a64.192 64.192 0 0 0 90.752 0l22.688-22.656a64.192 64.192 0 0 0 0-90.752L761.6 516.16a302.4 302.4 0 0 0 28.416-69.984h41.856c35.424 0 64.16-28.736 64.16-64.16v-32.096a64.16 64.16 0 0 0-64.192-64.096zM496 541.44a176.448 176.448 0 1 1 0-352.928 176.448 176.448 0 0 1 0 352.928z m0-254.624a80.192 80.192 0 1 0-0.064 160.384 80.192 80.192 0 0 0 0.064-160.384z"  horiz-adv-x="1024" />

    
    <glyph glyph-name="cog1" unicode="&#59796;" d="M933.778819 285.74707c-53.726321 93.053092-21.407331 212.281366 72.157745 266.487673l-100.636855 174.298553a192.697978 192.697978 0 0 0-97.852942-26.527171c-107.548639 0-194.713915 87.741258-194.713915 195.993875h-201.241711a192.729977 192.729977 0 0 0-25.951189-98.23693C331.813631 704.709978 212.393363 673.062967 118.700291 727.013281L18.095435 552.7147279999999a192.729977 192.729977 0 0 0 71.869754-71.485766c53.630324-92.893097 21.503328-211.929377-71.709759-266.199682l100.636855-174.298553a192.697978 192.697978 0 0 0 97.404956 26.23918c107.19665 0 194.137933-87.197275 194.681916-194.937908h201.241711a193.017968 193.017968 0 0 0 25.951189 97.212962c53.630324 92.893097 172.762601 124.604106 266.391675 71.005781l100.636855 174.298553a193.017968 193.017968 0 0 0-71.421768 71.229774zM512 176.66247899999996A207.35352 207.35352 0 1 0 512 591.3375209999999a207.35352 207.35352 0 0 0 0-414.675042z"  horiz-adv-x="1024" />

    
    <glyph glyph-name="content_copy" unicode="&#59687;" d="M810.016-21.34400000000005V576.672H342.016v-598.016h468z m0 682.016c46.016 0 86.016-37.984 86.016-84v-598.016c0-46.016-40-86.016-86.016-86.016H342.016C296-107.36000000000001 256-67.36000000000001 256-21.34400000000005V576.672c0 46.016 40 84 86.016 84h468z m-128 172v-86.016h-512v-598.016H86.016V746.656c0 46.016 38.016 86.016 84 86.016h512z"  horiz-adv-x="1024" />

    
    <glyph glyph-name="content_paste" unicode="&#59684;" d="M810.016 20.672000000000025V704.672h-84v-128H298.016v128H214.016v-684h596zM512 788.672c-24 0-42.016-18.016-42.016-42.016S488 704.64 512 704.64s42.016 18.016 42.016 42.016S536 788.672 512 788.672z m298.016 0c46.016 0 86.016-38.016 86.016-84v-684c0-46.016-40-84-86.016-84H214.016C168-63.327999999999975 128-25.312000000000012 128 20.672000000000025V704.672c0 46.016 40 84 86.016 84h178.016c18.016 50.016 64 86.016 120 86.016s102.016-36 120-86.016h178.016z"  horiz-adv-x="1024" />

    
    <glyph glyph-name="cogs" unicode="&#58953;" d="M616.648533 271.437649l20.092323 20.092323a56.847955 56.847955 0 0 1 0 80.369292l-34.686888 34.658549a268.738363 268.738363 0 0 1 26.015166 62.43073h37.520784A56.819616 56.819616 0 0 1 722.409533 525.808159v28.395638a56.819616 56.819616 0 0 1-56.819615 56.819616h-37.067361A268.00155 268.00155 0 0 1 603.385899 672.972381l33.354957 33.326617a56.847955 56.847955 0 0 1 0 80.369292l-20.092323 20.063984a56.847955 56.847955 0 0 1-80.369292 0l-32.674822-32.674821a267.916533 267.916533 0 0 1-64.386118 26.950351V839.180384A56.847955 56.847955 0 0 1 382.370346 896h-28.395639a56.847955 56.847955 0 0 1-56.847954-56.819616v-38.17258a268.369956 268.369956 0 0 1-64.386119-26.950351L200.037474 806.760613a56.791277 56.791277 0 0 1-80.340953 0l-20.092323-20.063984a56.847955 56.847955 0 0 1 0-80.369292L132.930815 672.972381a267.71816 267.71816 0 0 1-25.136658-61.977307H70.755136A56.791277 56.791277 0 0 1 13.93552 554.175458v-28.395638c0-31.371229 25.420048-56.819616 56.819616-56.819616h37.492445c6.121215-22.07605 14.849615-42.990203 26.043504-62.43073l-34.686887-34.658549a56.847955 56.847955 0 0 1 0-80.369292l20.092323-20.092323a56.791277 56.791277 0 0 1 80.340953 0l34.88526 34.88526a267.944872 267.944872 0 0 1 62.17568-25.590081v-36.387225c0-31.34289 25.448387-56.819616 56.847955-56.819616H382.342007a56.819616 56.819616 0 0 1 56.819616 56.819616v36.387225a268.143245 268.143245 0 0 1 62.175679 25.590081l34.885261-34.88526a56.932972 56.932972 0 0 1 80.42597 0.028339zM368.172527 382.866442a156.261028 156.261028 0 1 0 0 312.493717 156.261028 156.261028 0 0 0 0-312.493717z m0 229.035479a71.017435 71.017435 0 1 1-0.056678-142.034871 71.017435 71.017435 0 0 1 0.056678 142.034871z m355.994022-533.821a34.431837 34.431837 0 1 1-0.028339-68.863674 34.431837 34.431837 0 0 1 0.028339 68.863674z m144.245309-0.425084h-17.966901a131.011015 131.011015 0 0 1-12.214092 30.067637l16.153208 16.153207a27.54547 27.54547 0 0 1 0 38.966071l-9.748603 9.748602a27.54547 27.54547 0 0 1-38.966071 0l-15.869817-15.841479a130.925998 130.925998 0 0 1-31.229535 13.064261v18.477003a27.573809 27.573809 0 0 1-27.573809 27.573808h-13.772734a27.573809 27.573809 0 0 1-27.573809-27.573808v-18.477003c-11.080534-3.032269-21.53761-7.424808-31.229534-13.064261l-15.869818 15.841479a27.54547 27.54547 0 0 1-38.966071 0l-9.748603-9.748602a27.54547 27.54547 0 0 1 0-38.966071l16.153208-16.153207a129.22566 129.22566 0 0 1-12.214092-30.067637h-17.966901a27.573809 27.573809 0 0 1-27.573809-27.573809v-13.772735c0-15.218022 12.355787-27.573809 27.573809-27.573808h18.193613c2.947252-10.683788 7.198096-20.829136 12.610837-30.26601l-16.805004-16.805004a27.573809 27.573809 0 0 1 0-38.99441l9.748603-9.748602a27.602148 27.602148 0 0 1 38.966071 0l16.918359 16.946698c9.408535-5.327725 19.497205-9.521891 30.152654-12.412464v-17.655173c0-15.218022 12.355787-27.573809 27.573809-27.573808h13.772735a27.573809 27.573809 0 0 1 27.573808 27.573808v17.655173a128.460508 128.460508 0 0 1 30.124315 12.412464l16.946699-16.946698a27.602148 27.602148 0 0 1 38.96607 0l9.748603 9.748602a27.573809 27.573809 0 0 1 0 38.99441l-16.805004 16.805004c5.384403 9.436874 9.663586 19.582222 12.610838 30.26601h18.193612a27.573809 27.573809 0 0 1 27.573809 27.573808v13.772735a27.403775 27.403775 0 0 1-27.460453 27.573809z m-144.245309-110.663641a75.77838 75.77838 0 1 0 0 151.556761 75.77838 75.77838 0 0 0 0-151.556761z"  horiz-adv-x="1024" />

    
    <glyph glyph-name="data_usage" unicode="&#59693;" d="M512 64.67200000000003a295.968 295.968 0 0 1 232 112l112-66.016C777.984 4.639999999999986 653.984-63.360000000000014 512-63.360000000000014A425.088 425.088 0 0 0 85.984 362.65599999999995c0 222.016 168 402.016 384 424v-128c-144-20-256-146.016-256-296A296.224 296.224 0 0 1 512 64.63999999999999z m42.016 721.984c216-22.016 384-201.984 384-424 0-62.016-12-122.016-36-174.016l-112 66.016c12 34.016 20 70.016 20 108 0 150.016-112 276-256 296v128z"  horiz-adv-x="1024" />

    
    <glyph glyph-name="database" unicode="&#59666;" d="M518.88 437.536c147.424 0 295.36 26.464 376.16 83.264v-83.264c0-69.056-168.48-125.376-376.16-125.376S142.72 368.48 142.72 437.536v83.264c80.832-56.832 228.736-83.264 376.16-83.264z m0-376.16c147.424 0 295.36 26.464 376.16 83.264v-83.264C895.04-7.67999999999995 726.56-64 518.88-64S142.72-7.67999999999995 142.72 61.375999999999976V144.64c80.832-56.832 228.736-83.264 376.16-83.264z m0 188.096c147.424 0 295.36 26.464 376.16 83.264v-83.264c0-69.056-168.48-125.376-376.16-125.376S142.72 180.41600000000005 142.72 249.47199999999998v83.264c80.832-56.832 228.736-83.264 376.16-83.264z m0 564.256c207.68 0 376.16-56.32 376.16-125.376v-62.688c0-69.056-168.48-125.376-376.16-125.376S142.72 556.608 142.72 625.664V688.352c0 69.056 168.48 125.376 376.16 125.376z"  horiz-adv-x="1024" />

    
    <glyph glyph-name="enter" unicode="&#59923;" d="M384 384H64v128h320V640l192-192-192-192zM1024 896v-832l-384-192v192H256v256h64v-192h320V704l256 128H320v-256H256V896z"  horiz-adv-x="1024" />

    
    <glyph glyph-name="diary" unicode="&#59649;" d="M896 192h-64a128 128 0 0 0 0 256h64a128 128 0 0 0 0-256z m0 192h-64a64 64 0 0 1 0-128h64a64 64 0 0 1 0 128z m-256-64c0-2.752 0.672-5.28 0.8-8-0.128-2.688-0.8-5.248-0.8-8 0-33.664 12.032-64.192 31.36-88.704A191.584 191.584 0 0 1 832 128h128v-128a64 64 0 0 0-64-64H64a64 64 0 0 0-64 64V720a111.584 111.584 0 0 0 79.2 106.528A30.912 30.912 0 0 0 96 832h832a32 32 0 1 0 0-64H96a32 32 0 0 1-32-32v-32h832a64 64 0 0 0 64-64v-128h-128a192 192 0 0 1-192-192zM80 0h800a16 16 0 0 1 0 32h-800a16 16 0 0 1 0-32zM896 624a16 16 0 0 1-16 16h-800a16 16 0 0 1 0-32h800a16 16 0 0 1 16 16z"  horiz-adv-x="1024" />

    
    <glyph glyph-name="envelope" unicode="&#60584;" d="M512.48 292.448l-130.304 106.976-283.584-334.816h828.032l-283.616 338.144-130.528-110.304zM957.632 703.392H67.552l445.056-374.336L957.632 703.392z m-295.072-283.776l297.312-354.688V671.392l-297.312-251.776zM64.128 671.392v-606.464l297.312 354.688-297.312 251.776z"  horiz-adv-x="1024" />

    
    <glyph glyph-name="disk" unicode="&#59698;" d="M391.68 504.288a170.144 170.144 0 1 1 240.64-240.608 170.144 170.144 0 0 1-240.64 240.608z m160.416-160.384a56.704 56.704 0 1 0-80.192 80.192 56.704 56.704 0 0 0 80.192-80.192z m280.704 360.896c-177.184 177.184-464.448 177.184-641.6 0s-177.184-464.448 0-641.6c177.184-177.184 464.448-177.184 641.6 0s177.184 464.448 0 641.6z m-160.416-481.216a226.88 226.88 0 1 0-320.8 320.864 226.88 226.88 0 0 0 320.8-320.864z m20.032 340.864l100.256 140.32 40.096-40.096-140.352-100.224z"  horiz-adv-x="1024" />

    
    <glyph glyph-name="earth" unicode="&#59654;" d="M0 384c0-282.88 229.12-512 512-512s512 229.12 512 512S794.88 896 512 896 0 666.88 0 384z m106.656 0c0 32.864 3.84 64.864 11.296 95.36L213.312 384l-21.344-128 85.344-85.344v-117.12A404.704 404.704 0 0 0 106.656 384z m312.128 394.464c29.856 7.264 61.024 10.88 93.216 10.88 35.616 0 70.176-4.704 103.04-13.216l-17.696-29.44 21.344-21.344h64l17.696 17.696c14.912-7.904 28.992-16.416 42.656-26.016L704 704l-42.656-42.656L704 640v-21.344h-42.656V576s29.44-21.344 64-21.344c33.92 0 18.784 46.72 42.656 64 24.096 17.28 53.344 13.44 53.344 13.44l13.856-3.616a404.16 404.16 0 0 0 60.8-114.336V512s-30.08 21.344-85.344 21.344S704 512 704 512s-60.16-17.504-64-64c-6.624-80 21.344-106.656 21.344-106.656l106.656-64v-207.584a403.488 403.488 0 0 0-256-91.104c-45.856 0-89.824 7.456-130.976 21.536l109.664 255.776-21.344 106.656s-84.704 106.656-128 106.656-64-64-64-64l-42.656 85.344 128 85.344 64 170.656-7.904 31.776z"  horiz-adv-x="1024" />

    
    <glyph glyph-name="eye" unicode="&#59854;" d="M512 704C288.672 704 95.104 573.952 0 384c95.104-189.952 288.672-320 512-320s416.864 130.048 512 320c-95.104 189.952-288.672 320-512 320z m252.448-169.696A486.784 486.784 0 0 0 913.888 384a487.136 487.136 0 0 0-149.44-150.304C688.864 185.47199999999998 601.568 160 512 160s-176.864 25.472-252.448 73.696A486.784 486.784 0 0 0 110.112 384a487.136 487.136 0 0 0 161.312 157.6 256 256 0 1 1 481.152 0c3.968-2.368 7.936-4.8 11.872-7.296zM512 480a96 96 0 1 0-192 0 96 96 0 0 0 192 0z"  horiz-adv-x="1024" />

    
    <glyph glyph-name="file" unicode="&#58962;" d="M864-128H160a32 32 0 0 0-32 32V576h288a32 32 0 0 1 32 32V896h416a32 32 0 0 0 32-32v-960a32 32 0 0 0-32-32zM384 896v-256H128l256 256z"  horiz-adv-x="1024" />

    
    <glyph glyph-name="featured_play_list" unicode="&#59680;" d="M512 576.672V660.672H128v-84h384z m0-172v86.016H128v-86.016h384zM896 746.656c46.016 0 86.016-40 86.016-86.016V64.63999999999999c0-46.016-40-86.016-86.016-86.016H128c-46.016 0-86.016 40-86.016 86.016V660.64c0 46.016 40 86.016 86.016 86.016h768z"  horiz-adv-x="1024" />

    
    <glyph glyph-name="files-empty" unicode="&#59685;" d="M917.792 538.912c-22.208 30.304-53.184 65.696-87.168 99.712s-69.408 64.96-99.712 87.168C679.328 763.616 654.336 768 640 768H272A80.096 80.096 0 0 1 192 688v-736C192-92.096 227.872-128 272-128h608c44.096 0 80 35.904 80 80V448c0 14.336-4.384 39.36-42.208 90.912z m-132.416 54.464A874.688 874.688 0 0 0 857.952 512H704V665.952a874.688 874.688 0 0 0 81.376-72.576zM896-48c0-8.672-7.328-16-16-16h-608a16.224 16.224 0 0 0-16 16v736c0 8.672 7.328 16 16 16H640v-224a32 32 0 0 1 32-32h224v-496zM602.912 853.792C551.328 891.616 526.336 896 512 896H144A80.096 80.096 0 0 1 64 816v-736c0-38.624 27.52-70.944 64-78.4V816c0 8.672 7.328 16 16 16h486.88a635.936 635.936 0 0 1-27.936 21.792z"  horiz-adv-x="1024" />

    
    <glyph glyph-name="error" unicode="&#58965;" d="M848 32h-96a16 16 0 0 0 0 32H832v80a16 16 0 0 0 32 0v-96a16 16 0 0 0-16-16z m0 192a16 16 0 0 0-16 16v96a16 16 0 0 0 32 0v-96a16 16 0 0 0-16-16z m0 192a16 16 0 0 0-16 16v96a16 16 0 0 0 32 0v-96a16 16 0 0 0-16-16z m0 192a16 16 0 0 0-16 16V704h-80a16 16 0 0 0 0 32h96a16 16 0 0 0 16-16v-96a16 16 0 0 0-16-16z m-192-576h-96a16 16 0 0 0 0 32h96a16 16 0 0 0 0-32z m0 672h-96a16 16 0 0 0 0 32h96a16 16 0 0 0 0-32z m-192 0h-96a16 16 0 0 0 0 32h96a16 16 0 0 0 0-32z m-192-672h-96a16 16 0 0 0-16 16v96a16 16 0 0 0 32 0V64h80a16 16 0 0 0 0-32z m0 672H192v-80a16 16 0 0 0-32 0v96a16 16 0 0 0 16 16h96a16 16 0 0 0 0-32z m-96-160a16 16 0 0 0 16-16v-96a16 16 0 0 0-32 0v96a16 16 0 0 0 16 16z m0-192a16 16 0 0 0 16-16v-96a16 16 0 0 0-32 0v96a16 16 0 0 0 16 16z m487.552-87.136l-32.448-32.448a15.232 15.232 0 0 0-21.6 0l-91.84 91.84-91.84-91.84a15.232 15.232 0 0 0-21.6 0l-32.416 32.448a15.232 15.232 0 0 0 0 21.6l91.872 91.84-91.872 91.84a15.232 15.232 0 0 0 0 21.6l32.416 32.416a15.232 15.232 0 0 0 21.6 0l91.84-91.84 91.84 91.84a15.232 15.232 0 0 0 21.6 0l32.448-32.416a15.296 15.296 0 0 0 0-21.6l-91.872-91.84 91.872-91.84a15.296 15.296 0 0 0 0-21.6zM368 64h96a16 16 0 0 0 0-32h-96a16 16 0 0 0 0 32z"  horiz-adv-x="1024" />

    
    <glyph glyph-name="file-text" unicode="&#59682;" d="M864 896H96C43.2 896 0 852.8 0 800v-832c0-52.8 43.2-96 96-96h768c52.8 0 96 43.2 96 96V800c0 52.8-43.2 96-96 96z m-32-896H128V768h704v-768zM256 448h448v-64H256z m0-128h448v-64H256z m0-128h448v-64H256z m0 384h448v-64H256z"  horiz-adv-x="1024" />

    
    <glyph glyph-name="filter_list" unicode="&#59679;" d="M256 320.672v84h512v-84H256zM128 618.656h768v-86.016H128V618.656z m298.016-512v86.016h172v-86.016h-172z"  horiz-adv-x="1024" />

    
    <glyph glyph-name="file-text1" unicode="&#59686;" d="M917.792 666.912c-22.208 30.304-53.184 65.696-87.168 99.712s-69.408 64.96-99.712 87.168C679.328 891.616 654.336 896 640 896H144A80.096 80.096 0 0 1 64 816v-864C64-92.096 99.904-128 144-128h736c44.096 0 80 35.904 80 80V576c0 14.336-4.384 39.36-42.208 90.912z m-132.416 54.464A874.688 874.688 0 0 0 857.952 640H704V793.952a874.688 874.688 0 0 0 81.376-72.576zM896-48c0-8.672-7.328-16-16-16h-736a16.224 16.224 0 0 0-16 16v864c0 8.672 7.328 16 16 16H640v-224a32 32 0 0 1 32-32h224v-624zM736 64H288a32 32 0 0 0 0 64h448a32 32 0 0 0 0-64z m0 128H288a32 32 0 0 0 0 64h448a32 32 0 0 0 0-64z m0 128H288a32 32 0 0 0 0 64h448a32 32 0 0 0 0-64z"  horiz-adv-x="1024" />

    
    <glyph glyph-name="folder" unicode="&#59695;" d="M448 768l128-128h448v-704H0V768z"  horiz-adv-x="1024" />

    
    <glyph glyph-name="floppy" unicode="&#59699;" d="M904-64H120A56 56 0 0 0 64-8V776C64 806.912 89.088 832 120 832h672L960 664v-672A56 56 0 0 0 904-64zM288 76c0-15.488 12.544-28 28-28h392a27.968 27.968 0 0 1 28 28v224a27.968 27.968 0 0 1-28 28H316a28 28 0 0 1-28-28v-224z m392 616a27.968 27.968 0 1 1-56 0V608a27.968 27.968 0 1 1 56 0V692z m168-56L764 720H736v-196a27.968 27.968 0 0 0-28-28H316A28 28 0 0 0 288 524V720H204a28 28 0 0 1-28-28v-616c0-15.488 12.544-28 28-28h28v308c0 15.488 12.544 28 28 28h504c15.488 0 28-12.512 28-28V48h28a27.968 27.968 0 0 1 28 28v560z"  horiz-adv-x="1024" />

    
    <glyph glyph-name="folder-open" unicode="&#59696;" d="M832-64l192 512H192L0-64zM128 512L0-64V768h288l128-128h416v-128z"  horiz-adv-x="1024" />

    
    <glyph glyph-name="folder_special" unicode="&#59689;" d="M766.016 148.67200000000003l-34.016 142.016 110.016 96-144 12L640 532.704l-58.016-134.016-144-12 110.016-96-34.016-142.016L640 222.688z m88 469.984c46.016 0 84-40 84-86.016v-426.016c0-46.016-38.016-86.016-84-86.016H170.016c-46.016 0-84 40-84 86.016v512c0 46.016 38.016 86.016 84 86.016h256l86.016-86.016h342.016z"  horiz-adv-x="1024" />

    
    <glyph glyph-name="home" unicode="&#59822;" d="M1024 288l-192 192V768h-128v-160l-192 192L0 288v-32h128v-320h320v192h128v-192h320V256h128z"  horiz-adv-x="1024" />

    
    <glyph glyph-name="format_list_bulleted" unicode="&#59678;" d="M298.016 660.672h598.016v-84H298.016V660.672z m0-340v84h598.016v-84H298.016z m0-256v84h598.016v-84H298.016z m-128 105.984c36 0 64-30.016 64-64s-30.016-64-64-64-64 30.016-64 64 28 64 64 64z m0 512c36 0 64-28 64-64s-28-64-64-64-64 28-64 64 28 64 64 64z m0-256c36 0 64-28 64-64s-28-64-64-64-64 28-64 64 28 64 64 64z"  horiz-adv-x="1024" />

    
    <glyph glyph-name="format_list_numbered" unicode="&#59677;" d="M298.016 320.672v84h598.016v-84H298.016z m0-256v84h598.016v-84H298.016z m0 596h598.016v-84H298.016V660.672z m-212-256v44h128v-40l-78.016-88h78.016v-44h-128v40l76 88H86.016z m41.984 128v128H85.984V704.672h84v-172H127.968z m-41.984-384v44h128v-172h-128v44h84v20H128v44h42.016v20H86.016z"  horiz-adv-x="1024" />

    
    <glyph glyph-name="key" unicode="&#59709;" d="M704 896c-176.736 0-320-143.264-320-320 0-20.032 1.856-39.616 5.376-58.624L0 128l0-192a64 64 0 0 1 64-64l64 0 0 64 128 0 1e-8 128 127.99999999 0 0 128 128 0 83.04 83.04A319.264 319.264 0 0 1 704 256c176.736 0 320 143.264 320 320S880.736 896 704 896z m95.87199999-320.128a96 96 0 1 0 1e-8 192 96 96 0 0 0-1e-8-192z"  horiz-adv-x="1024" />

    
    <glyph glyph-name="key2" unicode="&#59961;" d="M448 256l-96 0 1e-8 1.952c-10.56-1.088-21.152-1.952-32.00000001-1.952-176.704 0-320 143.264-320 320S143.296 896 320 896s320-143.264 320-320l0-128 32 1e-8 0-32.00000001 32 0 0-32 32.00000001 0-1e-8-32 32 0 0-32 32 0 0-32 32 1e-8 0-32.00000001 32 0 0-32 32.00000001 0-1e-8-32 32 0 0-32 32 0 0-32 32 1e-8 0-32.00000001 32 0 0-192a32 32 0 0 0-32-32l-128 0a32 32 0 0 0-32 32l0 128-160 0a32 32 0 0 0-32 32l0 128-160 0M256 768a128 128 0 1 1 0-256 128 128 0 0 1 0 256z"  horiz-adv-x="1024" />

    
    <glyph glyph-name="keyboard_arrow_down" unicode="&#58131;" d="M316 540.672L512 344.672l196 196L768 480.672l-256-256-256 256z"  horiz-adv-x="1024" />

    
    <glyph glyph-name="laptop_chromebook" unicode="&#59707;" d="M854.016 234.65599999999995V660.672H170.016v-426.016h684z m-256-128v42.016h-172v-42.016h172z m340 0h86.016v-86.016h-1024v86.016h86.016v640h852v-640z"  horiz-adv-x="1024" />

    
    <glyph glyph-name="list" unicode="&#59835;" d="M384 832h640v-128H384V832z m0-384h640v-128H384v128z m0-384h640v-128H384v128zM0 768a128 128 0 1 0 256 0 128 128 0 0 0-256 0z m0-384a128 128 0 1 0 256 0 128 128 0 0 0-256 0z m0-384a128 128 0 1 0 256 0 128 128 0 0 0-256 0z"  horiz-adv-x="1024" />

    
    <glyph glyph-name="list-numbered" unicode="&#59833;" d="M384 64h640v-128H384z m0 384h640v-128H384z m0 384h640v-128H384zM192 896v-256H128V832H64V896zM128 369.98400000000004v-50.016h128v-64H64v146.016l128 60V512H64v64h192v-146.016zM256 192v-320H64v64h128v64H64v64h128v64H64v64z"  horiz-adv-x="1024" />

    
    <glyph glyph-name="lock" unicode="&#58983;" d="M592 448H576V640c0 105.856-86.144 192-192 192H256C150.144 832 64 745.856 64 640v-192h-16c-26.4 0-48-21.6-48-48v-480c0-26.4 21.6-48 48-48h544c26.4 0 48 21.6 48 48v480c0 26.4-21.6 48-48 48zM192 640c0 35.296 28.704 64 64 64h128c35.296 0 64-28.704 64-64v-192H192V640z"  horiz-adv-x="1024" />

    
    <glyph glyph-name="list-alt" unicode="&#59667;" d="M219.424 210.27200000000005v-36.576a18.784 18.784 0 0 0-18.272-18.272H164.576a18.784 18.784 0 0 0-18.272 18.272v36.576c0 9.728 8.576 18.272 18.272 18.272h36.576c9.728 0 18.272-8.576 18.272-18.272z m0 146.304V320a18.784 18.784 0 0 0-18.272-18.272H164.576A18.784 18.784 0 0 0 146.304 320v36.576c0 9.728 8.576 18.272 18.272 18.272h36.576c9.728 0 18.272-8.576 18.272-18.272z m0 146.272v-36.576a18.784 18.784 0 0 0-18.272-18.272H164.576a18.784 18.784 0 0 0-18.272 18.272v36.576c0 9.728 8.576 18.272 18.272 18.272h36.576c9.728 0 18.272-8.576 18.272-18.272z m658.304-292.576v-36.576a18.784 18.784 0 0 0-18.272-18.272H310.88a18.784 18.784 0 0 0-18.272 18.272v36.576c0 9.728 8.576 18.272 18.272 18.272h548.576c9.728 0 18.272-8.576 18.272-18.272z m0 146.304V320a18.784 18.784 0 0 0-18.272-18.272H310.88A18.784 18.784 0 0 0 292.608 320v36.576c0 9.728 8.576 18.272 18.272 18.272h548.576c9.728 0 18.272-8.576 18.272-18.272z m0 146.272v-36.576a18.784 18.784 0 0 0-18.272-18.272H310.88a18.784 18.784 0 0 0-18.272 18.272v36.576c0 9.728 8.576 18.272 18.272 18.272h548.576c9.728 0 18.272-8.576 18.272-18.272z m73.12-402.272V576a18.784 18.784 0 0 1-18.272 18.272H91.424a18.784 18.784 0 0 1-18.272-18.272v-475.424c0-9.728 8.576-18.272 18.272-18.272h841.152a18.784 18.784 0 0 1 18.272 18.272zM1024 722.2719999999999v-621.728a91.712 91.712 0 0 0-91.424-91.424H91.424A91.712 91.712 0 0 0 0 100.54399999999998V722.2719999999999a91.712 91.712 0 0 0 91.424 91.424h841.152A91.712 91.712 0 0 0 1024 722.2719999999999z"  horiz-adv-x="1024" />

    
    <glyph glyph-name="keyboard_arrow_right" unicode="&#58133;" d="M366.016 176.67200000000003l196 196-196 196 60 60 256-256-256-256z"  horiz-adv-x="1024" />

    
    <glyph glyph-name="local_library" unicode="&#59708;" d="M512 550.414749c-76.56641 0-139.994394 63.427984-139.994394 139.994394s63.427984 139.994394 139.994394 139.994395 139.994394-63.427984 139.994394-139.994395-63.427984-139.994394-139.994394-139.994394z m0-164.03899c109.348697 102.811373 258.080782 164.03899 419.951294 164.03899v-511.824609c-161.870512 0-310.602597-63.427984-419.951294-166.239357a613.041512 613.041512 0 0 1-419.951294 166.239357v511.824609c161.870512 0 310.602597-61.259506 419.951294-164.03899z"  horiz-adv-x="1024" />

    
    <glyph glyph-name="lock-fill" unicode="&#59798;" d="M576 896C399.744 896 256.128 752.512 256.128 576v-64H128v-448c0-105.888 86.112-192 192-192h384c105.888 0 192 86.112 192 192V576c0 176.512-143.616 320-320 320z m-64.128-768C476.64 128 448 156.64 448 192s28.64 64 63.872 64a64 64 0 1 0 0-128zM768 512H384.128v64c0 105.888 86.112 192 191.872 192 105.888 0 192-86.112 192-192v-64z"  horiz-adv-x="1024" />

    
    <glyph glyph-name="lock-stroke" unicode="&#59797;" d="M576.128 896c-176.32 0-319.936-143.488-319.936-320v-64H128v-448c0-105.76 86.24-192 191.936-192H704c106.016 0 192 86.24 192 192V576c0 176.512-143.488 320-319.872 320zM384.192 576c0 105.984 86.176 192 191.936 192A192 192 0 0 0 768 576v-64H384.192v64zM704 0H319.936c-35.264 0-64 28.736-64 64V384H768v-320c0-35.264-28.512-64-64-64z m-128 192a63.968 63.968 0 1 0-128 0c0 35.488 28.512 64 64 64 35.264 0 64-28.512 64-64z"  horiz-adv-x="1024" />

    
    <glyph glyph-name="log-out" unicode="&#59659;" d="M921.6 396.8l-273.056 227.552v-136.544h-318.592v-182.048h318.592v-136.544l273.056 227.552zM193.408 715.392h364.096V806.4H193.408A91.296 91.296 0 0 1 102.4 715.392v-637.152a91.296 91.296 0 0 1 91.008-91.008h364.096v91.008H193.408V715.392z"  horiz-adv-x="1024" />

    
    <glyph glyph-name="menu" unicode="&#60009;" d="M64 704h896v-192H64z m0-256h896v-192H64z m0-256h896v-192H64z"  horiz-adv-x="1024" />

    
    <glyph glyph-name="meter" unicode="&#59814;" d="M512 832c282.784 0 512-229.216 512-512 0-192.8-106.592-360.672-264-448H264.032c-157.44 87.328-264 255.2-264 448 0 282.784 229.216 512 512 512z m289.92-801.92A407.296 407.296 0 0 1 922.016 320H832v64h85.024a405.088 405.088 0 0 1-42.56 128H768v64h64.288a415.136 415.136 0 0 1-30.368 33.92A408.416 408.416 0 0 1 640 709.7280000000001v-69.696h-64V725.088a416.384 416.384 0 0 1-128 0v-85.056h-64V709.7280000000001A407.904 407.904 0 0 1 222.08 609.9200000000001c-10.816-10.816-20.928-22.144-30.368-33.92H256v-64H149.536a405.088 405.088 0 0 1-42.56-128H192v-64H101.984a407.36 407.36 0 0 1 120.096-289.92c10.72-10.72 21.92-20.736 33.568-30.08H448l36.576 512h54.848L576 0h192.352a418.24 418.24 0 0 1 33.568 30.08z"  horiz-adv-x="1024" />

    
    <glyph glyph-name="minus-alt" unicode="&#59683;" d="M512 896C229.248 896 0 666.752 0 384s229.248-512 512-512 512 229.248 512 512S794.752 896 512 896z m256-576H256v128h512v-128z"  horiz-adv-x="1024" />

    
    <glyph glyph-name="newspaper" unicode="&#59652;" d="M896 640V768H0v-704a64 64 0 0 1 64-64h864a96 96 0 0 1 96 96V640h-128z m-64-576H64V704h768v-640zM128 576h640v-64H128z m384-128h256v-64h-256z m0-128h256v-64h-256z m0-128h192v-64h-192zM128 448h320v-320H128z"  horiz-adv-x="1024" />

    
    <glyph glyph-name="minus" unicode="&#58995;" d="M272 736h-96a16 16 0 0 1-16-16v-96a16 16 0 0 1 32 0V704h80a16 16 0 0 1 0 32z m96-32h96a16 16 0 0 1 0 32h-96a16 16 0 0 1 0-32z m288 32h-96a16 16 0 0 1 0-32h96a16 16 0 0 1 0 32z m192 0h-96a16 16 0 0 1 0-32H832v-80a16 16 0 0 1 32 0v96a16 16 0 0 1-16 16z m0-192a16 16 0 0 1-16-16v-96a16 16 0 0 1 32 0v96a16 16 0 0 1-16 16z m0-192a16 16 0 0 1-16-16v-96a16 16 0 0 1 32 0v96a16 16 0 0 1-16 16z m0-192a16 16 0 0 1-16-16V64h-80a16 16 0 0 1 0-32h96a16 16 0 0 1 16 16v96a16 16 0 0 1-16 16z m-192-96h-96a16 16 0 0 1 0-32h96a16 16 0 0 1 0 32z m-192 0h-96a16 16 0 0 1 0-32h96a16 16 0 0 1 0 32z m-192 0H192v80a16 16 0 0 1-32 0v-96a16 16 0 0 1 16-16h96a16 16 0 0 1 0 32z m-96 160a16 16 0 0 1 16 16v96a16 16 0 0 1-32 0v-96a16 16 0 0 1 16-16z m0 192a16 16 0 0 1 16 16v96a16 16 0 0 1-32 0v-96a16 16 0 0 1 16-16z m206.016-64h256a32 32 0 1 1 0 64h-256a32 32 0 1 1 0-64z"  horiz-adv-x="1024" />

    
    <glyph glyph-name="new_releases" unicode="&#59690;" d="M554.016 320.672v256h-84v-256h84z m0-172v86.016h-84v-86.016h84z m428 213.984l-104-118.016 14.016-158.016-154.016-34.016-80-136L512-21.375999999999976l-146.016-62.016-80 134.016-154.016 36 14.016 158.016-104 118.016 104 120-14.016 156 154.016 34.016 80 136L512 746.656l146.016 62.016 80-136 154.016-34.016-14.016-158.016z"  horiz-adv-x="1024" />

    
    <glyph glyph-name="pause" unicode="&#59926;" d="M512 896C229.216 896 0 666.784 0 384s229.216-512 512-512 512 229.216 512 512S794.784 896 512 896z m0-928C282.24-32 96 154.24 96 384S282.24 800 512 800s416-186.24 416-416-186.24-416-416-416z m-192 608h128v-384h-128z m256 0h128v-384h-128z"  horiz-adv-x="1024" />

    
    <glyph glyph-name="pencil" unicode="&#59662;" d="M864 896a160 160 0 0 0 128-256l-64-64-224 224 64 64c26.752 20.096 59.968 32 96 32zM64 160l-64-288 288 64 592 592-224 224L64 160z m651.584 372.416l-448-448-55.168 55.168 448 448 55.168-55.168z"  horiz-adv-x="1024" />

    
    <glyph glyph-name="notification" unicode="&#59912;" d="M512 800c-111.104 0-215.584-43.264-294.144-121.856S96 495.104 96 384c0-111.104 43.264-215.584 121.856-294.144S400.896-32 512-32c111.104 0 215.584 43.264 294.144 121.856S928 272.89599999999996 928 384c0 111.104-43.264 215.584-121.856 294.144S623.104 800 512 800z m0 96c282.784 0 512-229.216 512-512s-229.216-512-512-512S0 101.21600000000001 0 384 229.216 896 512 896z m-64-704h128v-128h-128z m0 512h128v-384h-128z"  horiz-adv-x="1024" />

    
    <glyph glyph-name="note-checked" unicode="&#59701;" d="M160 544h736v-288h-159.808A63.904 63.904 0 0 1 672 192.06399999999996V0H223.808A64.064 64.064 0 0 0 160 64.03200000000004V544z m0 32V671.968C160 707.328 188.864 736 224.032 736h607.936C867.328 736 896 707.424 896 672.256V576H160z m544-576v191.904c0 17.728 14.432 32.096 31.712 32.096H896l-192-224z m-244.672 173.28l248.896 248.896-22.624 22.624-226.272-226.272-119.776 119.776-22.624-22.624 142.4-142.4z"  horiz-adv-x="1024" />

    
    <glyph glyph-name="pencil1" unicode="&#59657;" d="M965.536 654.656l-10.048-10.048-183.232 183.328 10.016 10.016S826.144 895.968 888.544 895.968c27.488 0 58.624-11.296 91.168-43.84 107.328-107.328-14.176-197.472-14.176-197.472z m-70.208-70.24L271.36-39.775999999999954 0-128l88.192 271.52v0.096h0.064L712.128 767.7760000000001l8.064-8.096M88.32-39.648000000000025l135.584 39.008-92.608 98.624-42.976-137.632z"  horiz-adv-x="1024" />

    
    <glyph glyph-name="perm_data_setting" unicode="&#59692;" d="M785.152 30.847999999999956c32.992 0 58.656 25.664 58.656 58.656s-25.664 58.656-58.656 58.656-58.656-25.664-58.656-58.656 25.664-58.656 58.656-58.656z m144.864 38.496l42.176-31.168a11.2 11.2 0 0 0 1.824-12.832l-38.496-67.84c-1.824-3.68-9.152-7.328-12.832-5.504l-47.68 20.16c-9.152-7.328-22.016-12.832-32.992-18.336l-7.328-53.152c0-5.504-5.504-7.328-11.008-7.328h-76.992c-5.504 0-11.008 1.824-11.008 7.328l-7.328 53.152a190.72 190.72 0 0 0-32.992 18.336l-47.68-20.16c-5.504-1.824-11.008 1.824-12.832 5.504l-38.496 67.84a11.328 11.328 0 0 0 1.824 12.832l42.176 31.168c0 5.504-1.824 12.832-1.824 20.16s1.824 12.832 1.824 18.336l-42.176 32.992a11.2 11.2 0 0 0-1.824 12.832l38.496 67.84c1.824 3.68 9.152 5.504 12.832 3.68l47.68-20.16c11.008 7.328 22.016 14.656 32.992 20.16l7.328 51.328c0 5.504 5.504 7.328 11.008 7.328h76.992c5.504 0 11.008-1.824 11.008-7.328l7.328-51.328c12.832-5.504 22.016-12.832 32.992-20.16l47.68 20.16c5.504 1.824 11.008 0 12.832-3.68l38.496-67.84a11.328 11.328 0 0 0-1.824-12.832l-42.176-32.992c1.824-5.504 1.824-11.008 1.824-18.336s-1.824-14.656-1.824-20.16z m-144.864 313.504c-161.344 0-293.344-132-293.344-293.344 0-12.832 1.824-27.488 3.68-40.32H42.656L825.504 832.032 823.68 379.20000000000005c-12.832 1.824-25.664 3.68-38.496 3.68z"  horiz-adv-x="1024" />

    
    <glyph glyph-name="playlist_play" unicode="&#59674;" d="M726.016 320.672l212-128-212-128v256z m-640-86.016v86.016h554.016v-86.016H86.016zM810.016 660.672v-84H86.016V660.672h724z m0-170.016v-86.016H86.016v86.016h724z"  horiz-adv-x="1024" />

    
    <glyph glyph-name="playlist_add_check" unicode="&#59675;" d="M918.016 384.672l64-64-298.016-300-194.016 192 64 64 130.016-128z m-832-192v84h340v-84H86.016z m512 425.984v-86.016h-512V618.656h512z m0-169.984v-86.016h-512v86.016h512z"  horiz-adv-x="1024" />

    
    <glyph glyph-name="play" unicode="&#59925;" d="M512 896C229.216 896 0 666.784 0 384s229.216-512 512-512 512 229.216 512 512S794.784 896 512 896z m0-928C282.24-32 96 154.24 96 384S282.24 800 512 800s416-186.24 416-416-186.24-416-416-416zM384 608l384-224-384-224z"  horiz-adv-x="1024" />

    
    <glyph glyph-name="plus-alt" unicode="&#59681;" d="M512 896C229.248 896 0 666.752 0 384s229.248-512 512-512 512 229.248 512 512S794.752 896 512 896z m256-576h-192v-192h-128v192H256v128h192V640h128v-192h192v-128z"  horiz-adv-x="1024" />

    
    <glyph glyph-name="playlist_add" unicode="&#59676;" d="M86.016 192.67200000000003v84h340v-84H86.016zM768 276.672h170.016v-84H768v-172h-86.016v172h-170.016v84h170.016v172H768v-172zM598.016 618.656v-86.016h-512V618.656h512z m0-169.984v-86.016h-512v86.016h512z"  horiz-adv-x="1024" />

    
    <glyph glyph-name="radio-checked" unicode="&#60161;" d="M512 896C229.216 896 0 666.784 0 384s229.216-512 512-512 512 229.216 512 512S794.784 896 512 896z m0-640a128 128 0 1 0 0 256 128 128 0 0 0 0-256z"  horiz-adv-x="1024" />

    
    <glyph glyph-name="radio-unchecked" unicode="&#60162;" d="M512 896C229.216 896 0 666.784 0 384s229.216-512 512-512 512 229.216 512 512S794.784 896 512 896z m0-896C299.936 0 128 171.93600000000004 128 384S299.936 768 512 768s384-171.936 384-384-171.936-384-384-384z"  horiz-adv-x="1024" />

    
    <glyph glyph-name="radio-checked1" unicode="&#60160;" d="M512 896C229.216 896 0 666.784 0 384s229.216-512 512-512 512 229.216 512 512S794.784 896 512 896z m0-896C299.936 0 128 171.93600000000004 128 384S299.936 768 512 768s384-171.936 384-384-171.936-384-384-384z m-192 384a192 192 0 1 0 384 0 192 192 0 0 0-384 0z"  horiz-adv-x="1024" />

    
    <glyph glyph-name="question-circle-o" unicode="&#59670;" d="M575.968 201.15200000000004v-91.424c0-10.272-8-18.272-18.272-18.272h-91.424a18.048 18.048 0 0 0-18.272 18.272v91.424c0 10.272 8 18.272 18.272 18.272h91.424c10.272 0 18.272-8 18.272-18.272z m146.304 283.424c0-81.152-56.576-113.152-98.272-136.576-29.728-17.152-48-28-48-46.272v-18.272c0-10.272-8-18.272-18.272-18.272h-91.424a18.048 18.048 0 0 0-18.272 18.272v38.848c0 70.272 50.272 92.576 90.848 110.848 34.272 16 55.424 26.848 55.424 52.576 0 33.152-41.728 57.728-79.424 57.728-20 0-41.152-6.272-54.272-15.424-12.576-8.576-24.576-21.152-45.728-47.424a17.28 17.28 0 0 0-14.272-6.848 17.6 17.6 0 0 0-10.848 3.424l-61.728 46.848a18.56 18.56 0 0 0-4 24.576c46.848 73.728 112.576 109.728 199.424 109.728 93.728 0 198.848-74.272 198.848-173.728z m-210.304 256c-201.728 0-365.728-164-365.728-365.728S310.24 9.120000000000005 511.968 9.120000000000005s365.728 164 365.728 365.728S713.696 740.576 511.968 740.576z m438.88-365.728C950.848 132.57600000000002 754.272-64 512-64S73.152 132.57600000000002 73.152 374.84799999999996 269.728 813.696 512 813.696c242.272 0 438.848-196.576 438.848-438.848z"  horiz-adv-x="1024" />

    
    <glyph glyph-name="rate_review" unicode="&#59706;" d="M768 276.672v86.016h-234.016l-86.016-86.016h320z m-512 0h106.016l294.016 294.016a21.76 21.76 0 0 1 0 30.016l-76 76a21.76 21.76 0 0 1-30.016 0L256 382.688v-106.016z m598.016 512a84.48 84.48 0 0 0 84-84v-512c0-46.016-38.016-86.016-84-86.016H256L85.984-63.360000000000014v768a84.48 84.48 0 0 0 84 84h684z"  horiz-adv-x="1024" />

    
    <glyph glyph-name="read-more" unicode="&#59703;" d="M960 720H64V832h896z m-336-224H64V608h560z m336-224H64V384h896zM64-8a56 56 0 1 0 112.032-0.032A56 56 0 0 0 64-8z m448 0a56 56 0 1 0 112.032-0.032A56 56 0 0 0 512-8z m-224 0a56 56 0 1 0 112.032-0.032A56 56 0 0 0 288-8z"  horiz-adv-x="1024" />

    
    <glyph glyph-name="server" unicode="&#59648;" d="M832 512H192c-35.008 0-64-32-64-64v-128c0-32 32-64 64-64h640c32 0 64 32 64 64v128c0 32-32 64-64 64zM256 320H192v128h64v-128z m128 0H320v128h64v-128z m128 0h-64v128h64v-128z m128 0h-64v128h64v-128z m192-128H192c-35.008 0-64-32-64-64v-128c0-32 32-64 64-64h640c32 0 64 32 64 64v128c0 32-32 64-64 64zM256 0H192v128h64v-128z m128 0H320v128h64v-128z m128 0h-64v128h64v-128z m128 0h-64v128h64v-128z m192 832H192C156.992 832 128 800 128 768v-128c0-32 32-64 64-64h640c32 0 64 32 64 64V768c0 32-32 64-64 64zM256 640H192V768h64v-128z m128 0H320V768h64v-128z m128 0h-64V768h64v-128z m128 0h-64V768h64v-128z m192 64h-64V768h64v-64z"  horiz-adv-x="1024" />

    
    <glyph glyph-name="search" unicode="&#59660;" d="M1014.838455-30.458073000000013a31.26272 31.26272 0 0 0 0-44.190191l-44.190191-44.190191a31.26272 31.26272 0 0 0-44.190191 0l-309.363335 309.363335a30.52675 30.52675 0 0 0-7.10371 11.551527A381.584379 381.584379 0 0 0 383.984281 128.03143899999998C171.928962 128.03143899999998 0 299.96040000000005 0 512.015719S171.928962 896 383.984281 896s383.984281-171.928962 383.98428-383.984281c0-84.636535-27.678867-162.553345-74.044968-226.006747a30.142766 30.142766 0 0 0 11.551527-7.10371l309.363335-309.363335zM383.984281 768.00524a255.98952 255.98952 0 1 1 0-511.979041 255.98952 255.98952 0 0 1 0 511.979041z"  horiz-adv-x="1024" />

    
    <glyph glyph-name="search1" unicode="&#59655;" d="M632.576 597.376c46.08-10.656 82.752-49.92 93.408-92.8 3.648-20.064 21.12-35.2 42.048-35.2 23.456 0 42.656 19.2 42.656 42.656 0 30.72-25.824 77.44-61.024 112.416-34.56 34.144-75.744 58.24-109.664 58.24-23.456 0-42.656-19.84-42.656-43.296 0-20.896 15.136-38.4 35.2-42.016zM46.112 38.01599999999996a84.832 84.832 0 0 1 0-119.872 84.544 84.544 0 0 1 119.68 0l245.088 244.896A370.752 370.752 0 0 1 608 106.68799999999999c206.304 0 373.344 167.04 373.344 373.344S814.304 853.376 608 853.376 234.656 686.336 234.656 480.032c0-72.32 20.704-139.936 56.352-197.12l-244.896-244.896z m295.264 442.016c0 147.2 119.488 266.656 266.656 266.656s266.656-119.456 266.656-266.656-119.456-266.656-266.656-266.656c-147.168 0.032-266.656 119.488-266.656 266.656z"  horiz-adv-x="1024" />

    
    <glyph glyph-name="shield" unicode="&#60000;" d="M960 896L512 768 64 896s-4.512-51.712 0-128l448-140.096L960 768c4.512 76.288 0 128 0 128zM72.192 700.896C96.192 450.208 185.696 28.672000000000025 512-128c326.304 156.672 415.84 578.208 439.808 828.896L512 535.552 72.192 700.896z"  horiz-adv-x="1024" />

    
    <glyph glyph-name="sign-in" unicode="&#59702;" d="M704 320v128h256v128h-256V704l-192-144V704L256 832h512v-192h64V896H128v-832l384-192v192h320V384h-64v-256h-256V464z"  horiz-adv-x="1024" />

    
    <glyph glyph-name="stack" unicode="&#59694;" d="M1024 576L512 832 0 576l512-256 512 256zM512 747.04L854.048 576 512 404.96 169.952 576 512 747.04z m409.44-311.776L1024 384l-512-256-512 256 102.56 51.264L512 230.52800000000002z m0-192L1024 192l-512-256-512 256 102.56 51.264L512 38.52800000000002z"  horiz-adv-x="1024" />

    
    <glyph glyph-name="stack1" unicode="&#59661;" d="M192 448h640v-128H192v128z m0-384h640v128H192v-128zM192 704v-128h640V704H192z"  horiz-adv-x="1024" />

    
    <glyph glyph-name="shield1" unicode="&#59653;" d="M192.224 642.976V640c6.816-187.744 41.824-355.616 57.824-372.032 37.12-49.504 152.096-131.008 216.96-171.968 16-10.24 29.664-12.16 45.024-12.576 15.36 0.416 28.992 2.976 44.992 12.576 66.144 39.04 182.624 122.464 219.552 171.968 16.224 16.416 48.64 184.288 55.456 372.032l0.224 2.976a40.32 40.32 0 0 1-26.464 37.76c-80.416 27.936-198.176 35.424-293.536 35.424-95.584 0-213.344-7.456-293.536-35.424-15.392-5.536-26.464-20.48-26.464-37.76zM0 766.08l0.224-4.704c10.88-300.384 59.072-564.48 85.12-590.72 59.744-79.392 250.656-202.656 353.92-270.08 24.544-16 48-27.968 72.736-28.576 24.736 0.608 48.224 12.576 72.736 28.576 103.264 67.424 294.176 190.688 353.92 270.08 26.016 26.24 74.24 290.336 85.12 590.72L1024 766.08c0 27.744-17.92 51.84-42.656 60.576C851.84 871.456 666.048 896 512 896S172.128 871.456 42.656 826.656A64.576 64.576 0 0 1 0 766.08z m103.456-69.76c0 22.176 14.304 41.184 33.92 48.224 102.4 35.424 252.8 44.8 374.624 44.8s272.224-9.376 374.624-44.8c19.616-7.04 33.92-26.016 33.92-48.224l-0.224-3.616c-8.736-237.856-49.92-453.76-70.624-474.656-47.392-62.72-198.432-163.392-280.096-216.736-19.424-12.608-37.984-22.208-57.6-22.624-19.616 0.416-38.176 10.016-57.6 22.624-81.696 53.344-232.736 154.016-280.096 216.736-20.704 20.896-61.856 236.8-70.624 474.656l-0.192 3.616z"  horiz-adv-x="1024" />

    
    <glyph glyph-name="storage" unicode="&#59697;" d="M170.016 404.672v-84h86.016v84H170.016z m-84-128v172h852v-172H86.016zM256 576.672V660.672H169.984v-84H256z m-169.984 128h852v-172H86.016V704.672z m84-556v-84h86.016v84H170.016z m-84-128v172h852v-172H86.016z"  horiz-adv-x="1024" />

    
    <glyph glyph-name="stars" unicode="&#59704;" d="M692 106.65599999999995l-48 206.016 160 138.016-210.016 18.016-82.016 192-82.016-194.016-210.016-16 160-138.016-48-206.016 180 108zM512 788.672c236 0 426.016-189.984 426.016-426.016S748-63.360000000000014 512-63.360000000000014 85.984 126.65599999999995 85.984 362.65599999999995 276 788.672 512 788.672z"  horiz-adv-x="1024" />

    
    <glyph glyph-name="switch" unicode="&#59658;" d="M960 384c0-247.424-200.576-448-448-448S64 136.57600000000002 64 384c0 109.056 39.232 208.736 104 286.4a63.68 63.68 0 0 0 20.32 22.72c1.44 1.504 2.72 3.2 4.192 4.672 0.032-0.736 0.352-1.44 0.416-2.176C202.176 700.8 212.672 704 224 704a64 64 0 0 0 35.36-117.312c1.12-0.832 1.92-1.856 3.072-2.688A318.24 318.24 0 0 1 192 384c0-176.736 143.264-320 320-320s320 143.264 320 320a318.24 318.24 0 0 1-70.432 200c1.152 0.832 1.984 1.856 3.072 2.688A64 64 0 0 0 800 704c11.328 0 21.824-3.2 31.072-8.384 0.064 0.736 0.384 1.44 0.448 2.176 1.44-1.472 2.72-3.168 4.192-4.672a64 64 0 0 0 20.32-22.72A445.888 445.888 0 0 0 960 384z m-416-64h-64a32 32 0 0 0-32 32V800a32 32 0 0 0 32 32h64a32 32 0 0 0 32-32v-448a32 32 0 0 0-32-32z"  horiz-adv-x="1024" />

    
    <glyph glyph-name="system" unicode="&#60383;" d="M831.84 285.82399999999996h-42.368a301.536 301.536 0 0 0-29.376-70.496l39.168-39.136a64.192 64.192 0 0 0 0-90.752l-22.688-22.688a64.192 64.192 0 0 0-90.752 0L646.4 102.144a301.984 301.984 0 0 0-70.208-28.896v-41.088A64.16 64.16 0 0 0 512.032-32h-32.064a64.192 64.192 0 0 0-64.192 64.16v41.088a303.936 303.936 0 0 0-70.208 28.896l-39.392-39.392a64.128 64.128 0 0 0-90.72 0l-22.72 22.688a64.192 64.192 0 0 0 0 90.752l39.168 39.136a303.552 303.552 0 0 0-29.408 70.496H160.16A64.128 64.128 0 0 0 96 349.952v32.096c0 35.424 28.704 64.16 64.16 64.16h41.856A301.216 301.216 0 0 0 230.4 516.1600000000001l-37.664 37.632a64.192 64.192 0 0 0 0 90.752l22.688 22.656a64.128 64.128 0 0 0 90.72 0l36.896-36.896a302.24 302.24 0 0 0 72.704 30.4V703.84A64.224 64.224 0 0 0 479.968 768h32.064c35.424 0 64.16-28.704 64.16-64.16v-43.104c25.792-7.04 50.144-17.28 72.704-30.432l36.896 36.896a64.192 64.192 0 0 0 90.752 0l22.688-22.656a64.192 64.192 0 0 0 0-90.752L761.6 516.1600000000001a302.4 302.4 0 0 0 28.416-69.984h41.856c35.424 0 64.16-28.736 64.16-64.16v-32.096a64.16 64.16 0 0 0-64.192-64.096zM496 541.44a176.448 176.448 0 1 1 0-352.928 176.448 176.448 0 0 1 0 352.928z m0-254.624a80.192 80.192 0 1 0-0.064 160.384 80.192 80.192 0 0 0 0.064-160.384z"  horiz-adv-x="1024" />

    
    <glyph glyph-name="systemset" unicode="&#60384;" d="M616.648533 271.43764899999996l20.092323 20.092323a56.847955 56.847955 0 0 1 0 80.369292l-34.686888 34.658549a268.738363 268.738363 0 0 1 26.015166 62.43073h37.520784A56.819616 56.819616 0 0 1 722.409533 525.8081589999999v28.395638a56.819616 56.819616 0 0 1-56.819615 56.819616h-37.067361A268.00155 268.00155 0 0 1 603.385899 672.972381l33.354957 33.326617a56.847955 56.847955 0 0 1 0 80.369292l-20.092323 20.063984a56.847955 56.847955 0 0 1-80.369292 0l-32.674822-32.674821a267.916533 267.916533 0 0 1-64.386118 26.950351V839.180384A56.847955 56.847955 0 0 1 382.370346 896h-28.395639a56.847955 56.847955 0 0 1-56.847954-56.819616v-38.17258a268.369956 268.369956 0 0 1-64.386119-26.950351L200.037474 806.760613a56.791277 56.791277 0 0 1-80.340953 0l-20.092323-20.063984a56.847955 56.847955 0 0 1 0-80.369292L132.930815 672.972381a267.71816 267.71816 0 0 1-25.136658-61.977307H70.755136A56.791277 56.791277 0 0 1 13.93552 554.1754579999999v-28.395638c0-31.371229 25.420048-56.819616 56.819616-56.819616h37.492445c6.121215-22.07605 14.849615-42.990203 26.043504-62.43073l-34.686887-34.658549a56.847955 56.847955 0 0 1 0-80.369292l20.092323-20.092323a56.791277 56.791277 0 0 1 80.340953 0l34.88526 34.88526a267.944872 267.944872 0 0 1 62.17568-25.590081v-36.387225c0-31.34289 25.448387-56.819616 56.847955-56.819616H382.342007a56.819616 56.819616 0 0 1 56.819616 56.819616v36.387225a268.143245 268.143245 0 0 1 62.175679 25.590081l34.885261-34.88526a56.932972 56.932972 0 0 1 80.42597 0.028339zM368.172527 382.866442a156.261028 156.261028 0 1 0 0 312.493717 156.261028 156.261028 0 0 0 0-312.493717z m0 229.035479a71.017435 71.017435 0 1 1-0.056678-142.034871 71.017435 71.017435 0 0 1 0.056678 142.034871z m355.994022-533.821a34.431837 34.431837 0 1 1-0.028339-68.863674 34.431837 34.431837 0 0 1 0.028339 68.863674z m144.245309-0.425084h-17.966901a131.011015 131.011015 0 0 1-12.214092 30.067637l16.153208 16.153207a27.54547 27.54547 0 0 1 0 38.966071l-9.748603 9.748602a27.54547 27.54547 0 0 1-38.966071 0l-15.869817-15.841479a130.925998 130.925998 0 0 1-31.229535 13.064261v18.477003a27.573809 27.573809 0 0 1-27.573809 27.573808h-13.772734a27.573809 27.573809 0 0 1-27.573809-27.573808v-18.477003c-11.080534-3.032269-21.53761-7.424808-31.229534-13.064261l-15.869818 15.841479a27.54547 27.54547 0 0 1-38.966071 0l-9.748603-9.748602a27.54547 27.54547 0 0 1 0-38.966071l16.153208-16.153207a129.22566 129.22566 0 0 1-12.214092-30.067637h-17.966901a27.573809 27.573809 0 0 1-27.573809-27.573809v-13.772735c0-15.218022 12.355787-27.573809 27.573809-27.573808h18.193613c2.947252-10.683788 7.198096-20.829136 12.610837-30.26601l-16.805004-16.805004a27.573809 27.573809 0 0 1 0-38.99441l9.748603-9.748602a27.602148 27.602148 0 0 1 38.966071 0l16.918359 16.946698c9.408535-5.327725 19.497205-9.521891 30.152654-12.412464v-17.655173c0-15.218022 12.355787-27.573809 27.573809-27.573808h13.772735a27.573809 27.573809 0 0 1 27.573808 27.573808v17.655173a128.460508 128.460508 0 0 1 30.124315 12.412464l16.946699-16.946698a27.602148 27.602148 0 0 1 38.96607 0l9.748603 9.748602a27.573809 27.573809 0 0 1 0 38.99441l-16.805004 16.805004c5.384403 9.436874 9.663586 19.582222 12.610838 30.26601h18.193612a27.573809 27.573809 0 0 1 27.573809 27.573808v13.772735a27.403775 27.403775 0 0 1-27.460453 27.573809z m-144.245309-110.663641a75.77838 75.77838 0 1 0 0 151.556761 75.77838 75.77838 0 0 0 0-151.556761z"  horiz-adv-x="1024" />

    
    <glyph glyph-name="tree1" unicode="&#59836;" d="M976 128H960v208c0 61.76-50.24 112-112 112H576v128h16c26.4 0 48 21.6 48 48v160c0 26.4-21.6 48-48 48h-160c-26.4 0-48-21.6-48-48v-160c0-26.4 21.6-48 48-48h16v-128H176C114.24 448 64 397.76 64 336V128h-16c-26.4 0-48-21.6-48-48v-160c0-26.4 21.6-48 48-48h160c26.4 0 48 21.6 48 48v160c0 26.4-21.6 48-48 48H192v192h256v-192h-16c-26.4 0-48-21.6-48-48v-160c0-26.4 21.6-48 48-48h160c26.4 0 48 21.6 48 48v160c0 26.4-21.6 48-48 48H576v192h256v-192h-16c-26.4 0-48-21.6-48-48v-160c0-26.4 21.6-48 48-48h160c26.4 0 48 21.6 48 48v160c0 26.4-21.6 48-48 48zM192-64H64v128h128v-128z m384 0h-128v128h128v-128zM448 640V768h128v-128h-128z m512-704h-128v128h128v-128z"  horiz-adv-x="1024" />

    
    <glyph glyph-name="unlock-stroke" unicode="&#59799;" d="M576.128 896C399.68 896 256.192 752.384 256.192 576h128c0 105.76 86.048 192 191.936 192S768 681.76 768 576v-64H128v-448c0-105.984 86.112-192 191.936-192H704c105.888 0 192 86.016 192 192V576c0 176.384-143.488 320-319.872 320zM704 0H319.936c-35.264 0-64 28.64-64 64V384H768v-320c0-35.36-28.736-64-64-64z m-128 192c0-35.488-28.64-64-64-64s-64 28.512-64 64c0 35.264 28.64 64 64 64s64-28.736 64-64z"  horiz-adv-x="1024" />

    
    <glyph glyph-name="tasks" unicode="&#59672;" d="M585.152 82.27200000000005h365.728v73.152H585.152v-73.152z m-219.424 292.576h585.152V448H365.728v-73.152z m365.696 292.576h219.424V740.576h-219.424v-73.152zM1024 192v-146.272c0-20-16.576-36.576-36.576-36.576H36.576A36.832 36.832 0 0 0 0 45.72799999999995V192c0 20 16.576 36.576 36.576 36.576h950.848c20 0 36.576-16.576 36.576-36.576z m0 292.576v-146.272c0-20-16.576-36.576-36.576-36.576H36.576A36.832 36.832 0 0 0 0 338.304v146.272c0 20 16.576 36.576 36.576 36.576h950.848c20 0 36.576-16.576 36.576-36.576z m0 292.576v-146.272c0-20-16.576-36.576-36.576-36.576H36.576A36.832 36.832 0 0 0 0 630.88V777.152c0 20 16.576 36.576 36.576 36.576h950.848c20 0 36.576-16.576 36.576-36.576z"  horiz-adv-x="1024" />

    
    <glyph glyph-name="user" unicode="&#59933;" d="M576 189.37599999999998v52.768c70.496 39.712 128 138.784 128 237.824 0 159.072 0 288-192 288s-192-128.928-192-288c0-99.072 57.504-198.112 128-237.824v-52.768C230.912 171.61599999999999 64 64.96000000000004 64-64h896c0 128.96-166.912 235.648-384 253.376z"  horiz-adv-x="1024" />

    
    <glyph glyph-name="user-check" unicode="&#59765;" d="M960 288l-288-288-96 96-64-64 160-160 352 352z m-512-160h320v115.136c-67.232 39.2-156.32 66.112-256 74.272v52.768c70.496 39.744 128 138.784 128 237.824 0 159.072 0 288-192 288S256 767.072 256 608c0-99.072 57.504-198.112 128-237.824v-52.768c-217.088-17.76-384-124.416-384-253.376h448v64z"  horiz-adv-x="1024" />

    
    <glyph glyph-name="view_module" unicode="&#59688;" d="M682.016 660.672h214.016v-256h-214.016v256z m-256-256v256h214.016v-256h-214.016z m256-298.016v256h214.016v-256h-214.016z m-256 0v256h214.016v-256h-214.016z m-256 0v256h214.016v-256H170.016z m0 298.016v256h214.016v-256H170.016z"  horiz-adv-x="1024" />

    
    <glyph glyph-name="view_comfy" unicode="&#59038;" d="M768 660.672h170.016v-169.984H768V660.704z m0-596v170.016h170.016v-170.016H768z m-213.984 0v170.016h172v-170.016h-172z m-212 0v170.016h170.016v-170.016h-170.016z m-214.016 0v170.016h170.016v-170.016H128z m640 212v172h170.016v-172H768z m-213.984 384h172v-169.984h-172V660.704z m-212-170.016V660.672h170.016v-170.016h-170.016z m212-213.984v172h172v-172h-172z m-212 0v172h170.016v-172h-170.016z m-214.016 0v172h170.016v-172H128z m0 213.984V660.672h170.016v-170.016H128z"  horiz-adv-x="1024" />

    
    <glyph glyph-name="users" unicode="&#59934;" d="M768 125.37599999999998v52.768c70.496 39.712 128 138.784 128 237.824 0 159.072 0 288-192 288s-192-128.928-192-288c0-99.072 57.504-198.112 128-237.824v-52.768C422.912 107.61599999999999 256 0.9600000000000364 256-128h896c0 128.96-166.912 235.648-384 253.376z m-440.8-24.704c55.296 36.16 124.064 63.648 199.776 80.416a362.56 362.56 0 0 0-40.48 59.008c-30.4 55.232-46.496 116.064-46.496 175.904 0 86.048 0 167.296 30.592 233.76 29.696 64.512 83.136 104.48 159.232 119.488C612.896 845.728 567.872 896 448 896 256 896 256 767.072 256 608c0-99.072 57.504-198.112 128-237.824v-52.768c-217.088-17.76-384-124.416-384-253.376h279.008c14.528 12.896 30.592 25.184 48.192 36.672z"  horiz-adv-x="1152" />

    
    <glyph glyph-name="view_list" unicode="&#59673;" d="M384 660.672h512v-169.984H384V660.704z m0-596v170.016h512v-170.016H384z m0 212v172h512v-172H384z m-213.984 213.984V660.672h172v-170.016H170.016z m0-425.984v170.016h172v-170.016H170.016z m0 212v172h172v-172H170.016z"  horiz-adv-x="1024" />

    
    <glyph glyph-name="warning" unicode="&#59911;" d="M512.01056 803.232l429.088-855.232H82.89056L511.97856 803.232zM512.01056 896c-22.08 0-44.128-14.88-60.896-44.64L14.02656-19.744000000000028C-19.44544-79.26400000000001 9.03456-128 77.32256-128h869.312c68.288 0 96.8 48.704 63.296 108.256L572.84256 851.36C556.10656 881.12 534.02656 896 511.94656 896z m64-832a64 64 0 1 0-127.968-0.032A64 64 0 0 0 576.01056 64z m-64 128a64 64 0 0 0-64 64v192a64 64 0 1 0 128 0v-192a64 64 0 0 0-64-64z"  horiz-adv-x="1024" />

    
    <glyph glyph-name="windows" unicode="&#60270;" d="M0.352 384L0 696.064l384 52.16V384zM448 757.504L959.872 832v-448H448zM960 320l-0.128-448L448-56V320zM384-47.84000000000003L0.32 4.768000000000029 0.288 320H384z"  horiz-adv-x="1024" />

    
    <glyph glyph-name="world" unicode="&#59650;" d="M496 896C222.048 896 0 673.952 0 400S222.048-96 496-96 992 126.048 992 400 769.952 896 496 896z m431.2-480h-191.872c-1.76 70.88-14.368 138.592-36.736 200.576a522.688 522.688 0 0 1 119.552 70.304A429.856 429.856 0 0 0 927.2 416zM478.304-31.104000000000042c-53.184 44.288-97.792 101.792-130.432 168.576A495.904 495.904 0 0 0 480 159.20000000000005v-190.368l-1.696 0.064z m35.328 862.208c60.352-50.24 109.6-117.536 142.912-196.032-45.632-15.584-94.112-24.64-144.576-26.24V831.2l1.664-0.096z m53.312-5.44a430.816 430.816 0 0 0 229.248-115.648 489.504 489.504 0 0 0-109.696-63.936c-29.12 69.024-69.984 130.048-119.552 179.584zM480 831.2v-222.368a495.744 495.744 0 0 0-144.576 26.24c33.312 78.496 82.56 145.792 142.912 196.032L480 831.2zM305.472 646.048a490.72 490.72 0 0 0-109.664 63.936 430.72 430.72 0 0 0 229.248 115.648c-49.6-49.504-90.432-110.528-119.584-179.584z m17.888-40.48c49.344-17.12 101.92-27.104 156.64-28.768V416H288.672c1.728 67.008 13.6 131.04 34.688 189.568zM480 384v-192.8a525.152 525.152 0 0 1-145.248-24.608A601.12 601.12 0 0 0 288.672 384H480z m-54.944-409.664a429.792 429.792 0 0 0-209.44 97.664 486.368 486.368 0 0 0 102.016 54.4 554.144 554.144 0 0 1 107.424-152.064z m86.944-5.536v190.368c45.824-1.472 90.24-8.64 132.128-21.728-32.672-66.784-77.248-124.288-130.432-168.576l-1.696-0.064z m162.368 157.6a490.24 490.24 0 0 0 102.016-54.4 430.08 430.08 0 0 0-209.44-97.664 554.816 554.816 0 0 1 107.424 152.064z m-17.12 40.192A525.568 525.568 0 0 1 512 191.20000000000005V384h191.328a601.792 601.792 0 0 0-46.08-217.408zM512 416V576.8a526.08 526.08 0 0 1 156.64 28.736c21.056-58.528 32.928-122.56 34.688-189.568H512zM173.888 686.88a523.2 523.2 0 0 1 119.52-70.304C271.04 554.592 258.432 486.88 256.672 416H64.8a429.728 429.728 0 0 0 109.088 270.88zM64.8 384h191.872a631.168 631.168 0 0 1 48.096-228.384 519.36 519.36 0 0 1-113.216-61.792A430.816 430.816 0 0 0 64.8 384z m735.648-290.144a520.192 520.192 0 0 1-113.248 61.792 631.2 631.2 0 0 1 48.128 228.384h191.872a430.848 430.848 0 0 0-126.752-290.176z"  horiz-adv-x="1024" />

    
    <glyph glyph-name="max" unicode="&#58982;" d="M750.944 691.2h-614.4v-546.144H819.2V691.2h-68.256z m0-477.856H204.8v409.6h546.144v-409.6z"  horiz-adv-x="1024" />

    
    <glyph glyph-name="min" unicode="&#58984;" d="M204.8 418.144h614.4v-68.256H204.8v68.256z"  horiz-adv-x="1024" />

    
    <glyph glyph-name="normal" unicode="&#58985;" d="M0-59.744h750.944v614.4H0v-614.4zM68.256 486.4h614.4v-477.856h-614.4V486.4z m819.2 273.056H204.8v-136.544h68.256v68.256h614.4v-477.856H819.2v-68.256h136.544v614.4h-68.256z"  horiz-adv-x="1024" />

    
    <glyph glyph-name="language" unicode="&#58950;" d="M729.6 601.6c19.2-57.6 44.8-102.4 89.6-147.2 38.4 38.4 64 89.6 83.2 147.2H729.6z m-422.4-320h166.4l-83.2 224zM947.2 896h-768c-70.4 0-128-57.6-128-128v-768c0-70.4 57.6-128 128-128h768c70.4 0 128 57.6 128 128V768c0 70.4-51.2 128-128 128zM633.6 70.4c-12.8-12.8-25.6-12.8-38.4-12.8-6.4 0-19.2 0-25.6 6.4s-12.8 0-12.8 6.4-6.4 12.8-12.8 25.6-6.4 19.2-12.8 32l-25.6 70.4h-224L256 128c-12.8-25.6-19.2-44.8-25.6-57.6-6.4-12.8-19.2-12.8-38.4-12.8-12.8 0-25.6 6.4-38.4 12.8-12.8 12.8-19.2 19.2-19.2 32 0 6.4 0 12.8 6.4 25.6s6.4 19.2 12.8 32l140.8 358.4c6.4 12.8 6.4 25.6 12.8 38.4s12.8 25.6 19.2 32 12.8 19.2 25.6 25.6c12.8 6.4 25.6 6.4 38.4 6.4 12.8 0 25.6 0 38.4-6.4 12.8-6.4 19.2-12.8 25.6-25.6 6.4-6.4 12.8-19.2 19.2-32 6.4-12.8 12.8-25.6 19.2-44.8l140.8-352c12.8-25.6 19.2-44.8 19.2-57.6-6.4-6.4-12.8-19.2-19.2-32z m352 249.6c-70.4 25.6-121.6 57.6-166.4 96-44.8-44.8-102.4-76.8-172.8-96l-19.2 32c70.4 19.2 128 44.8 172.8 89.6-44.8 44.8-83.2 102.4-96 166.4h-64v25.6h172.8c-12.8 19.2-25.6 44.8-38.4 64l19.2 6.4c12.8-19.2 32-44.8 44.8-70.4h160v-32h-64c-19.2-64-51.2-121.6-89.6-160 44.8-38.4 96-70.4 166.4-89.6l-25.6-32z"  horiz-adv-x="1088" />

    


  </font>
</defs>
</svg>
